<?xml version="1.0" encoding="utf-8"?>
<!-- Generator: Adobe Illustrator 23.0.0, SVG Export Plug-In . SVG Version: 6.00 Build 0)  -->
<svg version="1.1" id="Capa_1" xmlns="http://www.w3.org/2000/svg" xmlns:xlink="http://www.w3.org/1999/xlink" x="0px" y="0px"
	 width="512px" height="512px" viewBox="0 0 512 512" style="enable-background:new 0 0 512 512;" xml:space="preserve">
<style type="text/css">
	.st0{fill:url(#SVGID_1_);}
	.st1{fill:url(#SVGID_2_);}
	.st2{fill:url(#SVGID_3_);}
	.st3{fill:url(#SVGID_4_);}
	.st4{fill:url(#SVGID_5_);}
	.st5{fill:url(#SVGID_6_);}
	.st6{fill:url(#SVGID_7_);}
	.st7{fill:url(#SVGID_8_);}
	.st8{fill:url(#SVGID_9_);}
	.st9{fill:url(#SVGID_10_);}
	.st10{fill:url(#SVGID_11_);}
	.st11{fill:url(#SVGID_12_);}
	.st12{fill:url(#SVGID_13_);}
	.st13{fill:url(#SVGID_14_);stroke:url(#SVGID_15_);stroke-width:20;stroke-miterlimit:10;}
	.st14{fill:url(#SVGID_16_);}
	.st15{fill:url(#SVGID_17_);}
	.st16{fill:url(#SVGID_18_);}
</style>
<linearGradient id="SVGID_1_" gradientUnits="userSpaceOnUse" x1="242.7712" y1="-235.7388" x2="501.1112" y2="-494.0787" gradientTransform="matrix(1.0039 0 0 -1.0039 2.0876 30.5599)">
	<stop  offset="0" style="stop-color:#FFFFFF"/>
	<stop  offset="1" style="stop-color:#C3C3C3"/>
</linearGradient>
<path class="st0" d="M435.5,258.5c0,20.6-3.1,40.5-9,59.2c-0.6,2.1-1.3,4.1-2,6.2c-2.3,6.7-5,13.2-8,19.5
	c-2.5,5.3-5.3,10.5-8.3,15.6c-6,10.1-12.8,19.7-20.4,28.6c-8,9.3-16.8,17.9-26.3,25.6c-34,27.4-77.3,43.8-124.4,43.8
	c-109.6,0-198.5-88.9-198.5-198.5S127.3,60,237,60S435.5,148.8,435.5,258.5z"/>
<linearGradient id="SVGID_2_" gradientUnits="userSpaceOnUse" x1="233.9998" y1="-221.5695" x2="233.9998" y2="-254.9195" gradientTransform="matrix(1.0039 0 0 -1.0039 2.0876 30.5599)">
	<stop  offset="0" style="stop-color:#F18D00"/>
	<stop  offset="1" style="stop-color:#ED7103"/>
</linearGradient>
<circle class="st1" cx="237" cy="258.5" r="11.2"/>
<linearGradient id="SVGID_3_" gradientUnits="userSpaceOnUse" x1="269.3294" y1="-204.2806" x2="279.1595" y2="-235.2405" gradientTransform="matrix(1.0039 0 0 -1.0039 2.0876 30.5599)">
	<stop  offset="0" style="stop-color:#A7F3CE"/>
	<stop  offset="1" style="stop-color:#61DB99"/>
</linearGradient>
<path class="st2" d="M237,100.8c-1.4,0-2.6,0.6-3.5,1.4c-0.9,0.9-1.4,2.1-1.4,3.5v36.2c0,1,0.3,2,0.8,2.8c0.4,0.5,0.8,1,1.3,1.3
	c0.3,0.2,0.5,0.3,0.8,0.5c0.6,0.2,1.2,0.4,1.9,0.4c1.4,0,2.6-0.6,3.5-1.4c0.9-0.9,1.4-2.1,1.4-3.5v-36.2
	C241.9,103,239.7,100.8,237,100.8z"/>
<linearGradient id="SVGID_4_" gradientUnits="userSpaceOnUse" x1="192.0065" y1="-228.8312" x2="201.8365" y2="-259.7912" gradientTransform="matrix(1.0039 0 0 -1.0039 2.0876 30.5599)">
	<stop  offset="0" style="stop-color:#A7F3CE"/>
	<stop  offset="1" style="stop-color:#61DB99"/>
</linearGradient>
<path class="st3" d="M237,370.1c-2.7,0-4.9,2.2-4.9,4.9v36.2c0,0.5,0.1,0.9,0.2,1.3c0.6,2.1,2.5,3.6,4.7,3.6c0.7,0,1.3-0.1,1.9-0.4
	c1.8-0.7,3-2.5,3-4.5V375C241.9,372.3,239.7,370.1,237,370.1z"/>
<linearGradient id="SVGID_5_" gradientUnits="userSpaceOnUse" x1="347.7464" y1="-213.2399" x2="393.5964" y2="-244.1999" gradientTransform="matrix(1.0039 0 0 -1.0039 2.0876 30.5599)">
	<stop  offset="0" style="stop-color:#A7F3CE"/>
	<stop  offset="1" style="stop-color:#61DB99"/>
</linearGradient>
<path class="st4" d="M389.7,253.5h-36.2c-2.7,0-4.9,2.2-4.9,4.9c0,2.7,2.2,4.9,4.9,4.9h36.2c2.7,0,4.9-2.2,4.9-4.9
	C394.6,255.8,392.4,253.5,389.7,253.5z"/>
<linearGradient id="SVGID_6_" gradientUnits="userSpaceOnUse" x1="79.4884" y1="-213.2813" x2="125.3384" y2="-244.2414" gradientTransform="matrix(1.0039 0 0 -1.0039 2.0876 30.5599)">
	<stop  offset="0" style="stop-color:#A7F3CE"/>
	<stop  offset="1" style="stop-color:#61DB99"/>
</linearGradient>
<path class="st5" d="M125.3,258.5c0-1-0.3-2-0.8-2.8c-0.4-0.5-0.8-1-1.3-1.3c-0.8-0.5-1.7-0.8-2.8-0.8H84.2c-1.4,0-2.6,0.6-3.5,1.4
	c-0.9,0.9-1.4,2.1-1.4,3.5c0,2.7,2.2,4.9,4.9,4.9h36.2c1.4,0,2.6-0.6,3.5-1.4S125.3,259.8,125.3,258.5z"/>
<linearGradient id="SVGID_7_" gradientUnits="userSpaceOnUse" x1="360.9433" y1="-160.2967" x2="396.2433" y2="-191.2568" gradientTransform="matrix(1.0039 0 0 -1.0039 2.0876 30.5599)">
	<stop  offset="0" style="stop-color:#A7F3CE"/>
	<stop  offset="1" style="stop-color:#61DB99"/>
</linearGradient>
<path class="st6" d="M322.9,179.5l25.6-25.6c1.9-1.9,1.9-5,0-7c-1.9-1.9-5-1.9-7,0l-25.6,25.6c-1.9,1.9-1.9,5,0,7
	S321,181.5,322.9,179.5z"/>
<linearGradient id="SVGID_8_" gradientUnits="userSpaceOnUse" x1="77.1747" y1="-267.5832" x2="112.4647" y2="-298.5432" gradientTransform="matrix(1.0039 0 0 -1.0039 2.0876 30.5599)">
	<stop  offset="0" style="stop-color:#A7F3CE"/>
	<stop  offset="1" style="stop-color:#61DB99"/>
</linearGradient>
<path class="st7" d="M158,337.4c-1.9-1.9-5-1.9-7,0L125.5,363c-1.7,1.7-1.9,4.2-0.7,6.1c0.2,0.2,0.3,0.5,0.5,0.7
	c0.1,0.1,0.1,0.1,0.1,0.2l0,0l0,0c0.9,0.9,2.2,1.4,3.4,1.4h0.1c1.3,0,2.5-0.5,3.5-1.4l0,0l25.6-25.6c0.7-0.7,1.2-1.6,1.4-2.5
	c0.1-0.3,0.1-0.6,0.1-0.9C159.5,339.6,159,338.4,158,337.4z"/>
<linearGradient id="SVGID_9_" gradientUnits="userSpaceOnUse" x1="266.8545" y1="-267.5463" x2="302.1345" y2="-298.5063" gradientTransform="matrix(1.0039 0 0 -1.0039 2.0876 30.5599)">
	<stop  offset="0" style="stop-color:#A7F3CE"/>
	<stop  offset="1" style="stop-color:#61DB99"/>
</linearGradient>
<path class="st8" d="M348.5,363l-25.6-25.6c-0.6-0.6-1.3-1-2.1-1.2c-0.7-0.2-1.5-0.3-2.3-0.1c-1,0.2-1.9,0.6-2.6,1.4
	c-1.9,1.9-1.9,5,0,7l25.6,25.6c0.3,0.3,0.6,0.5,0.9,0.7c1.9,1.1,4.4,0.9,6-0.7c0.8-0.8,1.2-1.8,1.4-2.8
	C350,365.7,349.6,364.1,348.5,363z"/>
<linearGradient id="SVGID_10_" gradientUnits="userSpaceOnUse" x1="171.2736" y1="-160.2963" x2="206.5735" y2="-191.2563" gradientTransform="matrix(1.0039 0 0 -1.0039 2.0876 30.5599)">
	<stop  offset="0" style="stop-color:#A7F3CE"/>
	<stop  offset="1" style="stop-color:#61DB99"/>
</linearGradient>
<path class="st9" d="M132.5,147c-1-1-2.2-1.4-3.5-1.4c-0.3,0-0.6,0-0.9,0.1c-0.9,0.2-1.8,0.6-2.5,1.4c-1,1-1.4,2.2-1.4,3.5
	c0,0.3,0,0.6,0.1,0.9c0.2,0.9,0.6,1.8,1.4,2.5l25.6,25.6l0,0l0,0l0.1,0.1c0.4,0.4,1,0.7,1.5,1c0.6,0.2,1.2,0.4,1.9,0.4
	c1.3,0,2.5-0.5,3.5-1.4c0.7-0.7,1.2-1.6,1.4-2.5c0.1-0.3,0.1-0.6,0.1-0.9c0-1.3-0.5-2.5-1.4-3.5L132.5,147z"/>
<linearGradient id="SVGID_11_" gradientUnits="userSpaceOnUse" x1="390.3599" y1="-221.952" x2="87.0699" y2="-251.962" gradientTransform="matrix(-1.0039 0 0 1.0039 566.3801 486.4397)">
	<stop  offset="0" style="stop-color:#FFDE6A"/>
	<stop  offset="1" style="stop-color:#FFC000"/>
</linearGradient>
<path class="st10" d="M228.4,244.4c7.8,0,14.1,6.3,14.1,14.1c0,7.8-6.3,14.1-14.1,14.1c-7.8,0-80.4-6.3-80.4-14.1
	C148,250.7,220.6,244.4,228.4,244.4z"/>
<linearGradient id="SVGID_12_" gradientUnits="userSpaceOnUse" x1="262.2742" y1="-284.1702" x2="292.2842" y2="-397.3901" gradientTransform="matrix(1.0039 0 0 -1.0039 2.0876 30.5599)">
	<stop  offset="0" style="stop-color:#FFDE6A"/>
	<stop  offset="1" style="stop-color:#FFC000"/>
</linearGradient>
<path class="st11" d="M251.1,244.4c0,7.8-6.3,14.1-14.1,14.1s-14.1-6.3-14.1-14.1S229.2,124,237,124S251.1,236.6,251.1,244.4z"/>
<linearGradient id="SVGID_13_" gradientUnits="userSpaceOnUse" x1="233.9998" y1="-217.0695" x2="233.9998" y2="-248.0294" gradientTransform="matrix(1.0039 0 0 -1.0039 2.0876 30.5599)">
	<stop  offset="0" style="stop-color:#A7F3CE"/>
	<stop  offset="1" style="stop-color:#61DB99"/>
</linearGradient>
<circle class="st12" cx="237" cy="258.5" r="21.5"/>
<linearGradient id="SVGID_14_" gradientUnits="userSpaceOnUse" x1="235.5" y1="115.5" x2="435.5" y2="115.5" gradientTransform="matrix(1 0 0 -1 0 514)">
	<stop  offset="0" style="stop-color:#FFFFFF"/>
	<stop  offset="1" style="stop-color:#C3C3C3"/>
</linearGradient>
<linearGradient id="SVGID_15_" gradientUnits="userSpaceOnUse" x1="225.5" y1="115.5" x2="445.5" y2="115.5" gradientTransform="matrix(1 0 0 -1 0 514)">
	<stop  offset="0" style="stop-color:#2A85FF"/>
	<stop  offset="1" style="stop-color:#005EFF"/>
</linearGradient>
<circle class="st13" cx="335.5" cy="398.5" r="100"/>
<linearGradient id="SVGID_16_" gradientUnits="userSpaceOnUse" x1="301.2133" y1="-294.3468" x2="414.4333" y2="-407.5668" gradientTransform="matrix(1.0039 0 0 -1.0039 2.0876 30.5599)">
	<stop  offset="0" style="stop-color:#FFC000"/>
	<stop  offset="1" style="stop-color:#FFDE6A"/>
</linearGradient>
<path class="st14" d="M495.3,224.5h-22.8h-1.1C455,109.9,356.1,21.5,237,21.5c-130.7,0-237,106.3-237,237
	c0,53.9,18.6,106.7,52.4,148.6c33.3,41.3,79.9,70.5,131.2,82.3c1.4,0.3,2.8,0.5,4.2,0.5c8.5,0,16.2-5.8,18.1-14.5
	c2.3-10-3.9-20-14-22.3c-43.3-10-82.5-34.6-110.6-69.4c-28.9-35.8-44.1-79.1-44.1-125.2c0-110.1,89.6-199.7,199.7-199.7
	c98.5,0,180.6,71.7,196.8,165.7H414c-14.8,0-22.3,17.9-11.8,28.4l40.6,40.6c6.5,6.5,17.1,6.5,23.6,0l40.6-40.6
	C517.6,242.4,510.1,224.5,495.3,224.5z"/>
<g>
	
		<linearGradient id="SVGID_17_" gradientUnits="userSpaceOnUse" x1="275" y1="111.85" x2="330.3" y2="111.85" gradientTransform="matrix(1 0 0 -1 0 514)">
		<stop  offset="0" style="stop-color:#2A85FF"/>
		<stop  offset="1" style="stop-color:#005EFF"/>
	</linearGradient>
	<path class="st15" d="M275,446.2v-12.3l10-10c17.2-17.1,25.4-26.8,25.6-37c0-7.1-3.7-12.7-12.7-12.7c-6.7,0-12.6,3.7-16.7,7.1
		l-5.2-14.4c5.8-4.9,15-8.9,25.4-8.9c17.8,0,27.4,11.5,27.4,27.2c0,14.5-9.4,26.2-20.8,37.4l-7.2,6.7v0.3h29.5v16.7H275V446.2z"/>
	
		<linearGradient id="SVGID_18_" gradientUnits="userSpaceOnUse" x1="339.1732" y1="111.15" x2="400.2732" y2="111.15" gradientTransform="matrix(1 0 0 -1 0 514)">
		<stop  offset="0" style="stop-color:#2A85FF"/>
		<stop  offset="1" style="stop-color:#005EFF"/>
	</linearGradient>
	<path class="st16" d="M373.7,446.2v-20.7h-34.6v-13.2l29.4-52.8H391v50.8h9.2v15.2H391v20.7H373.7z M373.7,410.3v-19.2
		c0-5.2,0.2-10.5,0.5-16.1h-0.4c-2.5,5.6-4.7,10.7-7.3,16.1L356.2,410l-0.1,0.3H373.7z"/>
</g>
</svg>
