<?xml version="1.0" encoding="utf-8"?>
<!-- Generator: Adobe Illustrator 23.0.0, SVG Export Plug-In . SVG Version: 6.00 Build 0)  -->
<svg version="1.1" id="Layer_1" xmlns="http://www.w3.org/2000/svg" xmlns:xlink="http://www.w3.org/1999/xlink" x="0px" y="0px"
	 width="496px" height="496px" viewBox="0 0 496 496" style="enable-background:new 0 0 496 496;" xml:space="preserve">
<style type="text/css">
	.st0{fill:#414349;}
	.st1{fill:url(#SVGID_1_);}
	.st2{fill:url(#SVGID_2_);}
	.st3{fill:url(#SVGID_3_);}
	.st4{fill:url(#SVGID_4_);}
</style>
<path class="st0" d="M417.2,9.4l2.7,13.7l16.2-3.2l-45.6,49.4l-27.3-16.6l-29.1,39.4c-3.2-0.7-6.6-0.9-10.1-0.2
	c-12.4,2.4-20.8,13.7-18.5,25c0.7,3.6,2.4,6.6,4.7,9.2l-31.5,47.6c-2.9-0.5-5.9-0.5-8.9,0.1c-0.1,0-0.3,0.1-0.4,0.1l-44.7-67.7
	c4.2-4.7,6.3-11,5-17.3c-2.2-11.4-14.2-18.6-26.6-16.2s-20.8,13.7-18.5,25c0.3,1.5,0.8,2.9,1.4,4.2l-54.9,46.8
	c-4.4-2.1-9.6-2.9-15-1.9c-9.8,1.9-16.9,9.3-18.5,17.9l-40.4,7.9c-4.7-7.4-14.1-11.5-23.9-9.6c-12.4,2.4-20.8,13.7-18.5,25
	s14.2,18.6,26.6,16.2c9.8-1.9,16.9-9.3,18.5-17.9l40.4-7.9c4.7,7.4,14.1,11.5,23.9,9.6c12.4-2.4,20.8-13.7,18.5-25
	c-0.3-1.5-0.8-2.9-1.4-4.2l54.9-46.8c4.4,2.1,9.6,2.9,15,1.9c0.1,0,0.3-0.1,0.4-0.1l44.7,67.7c-4.2,4.8-6.3,11-5,17.3
	c2.2,11.4,14.2,18.6,26.6,16.2c12.4-2.4,20.8-13.7,18.5-25c-0.7-3.6-2.4-6.6-4.7-9.2l31.5-47.6c2.9,0.5,5.9,0.5,8.9-0.1
	c12.4-2.4,20.8-13.7,18.5-25c-0.6-3.2-2.1-6-4-8.4l20.4-27.6L393,88l58.5-63.3l3.9,20.1l15-3l-8.1-41.2L417.2,9.4z M38.8,190.8
	c-4.2,0.8-8.1-1.6-8.9-5.4s2-7.5,6.2-8.3s8.1,1.6,8.9,5.4C45.7,186.3,42.9,190,38.8,190.8z M121.5,174.6c-4.2,0.8-8.1-1.6-8.9-5.4
	c-0.7-3.8,2-7.5,6.2-8.3c4.2-0.8,8.1,1.6,8.9,5.4C128.5,170,125.7,173.7,121.5,174.6z M199.7,95c-0.7-3.8,2-7.5,6.2-8.3
	c4.2-0.8,8.1,1.6,8.9,5.4c0.7,3.8-2,7.5-6.2,8.3C204.4,101.2,200.4,98.8,199.7,95z M275.3,201.5c-4.2,0.8-8.1-1.6-8.9-5.4
	c-0.7-3.8,2-7.5,6.2-8.3c4.2-0.8,8.1,1.6,8.9,5.4C282.2,196.9,279.4,200.6,275.3,201.5z M329.5,119.4c-4.2,0.8-8.1-1.6-8.9-5.4
	c-0.7-3.8,2-7.5,6.2-8.3c4.2-0.8,8.1,1.6,8.9,5.4C336.4,114.9,333.6,118.6,329.5,119.4z"/>
<linearGradient id="SVGID_1_" gradientUnits="userSpaceOnUse" x1="390.5" y1="315" x2="465.5" y2="315">
	<stop  offset="0" style="stop-color:#FF7F83"/>
	<stop  offset="1" style="stop-color:#FF3F45"/>
</linearGradient>
<path class="st1" d="M465.5,150v346h-75V150c0-8.9,5.5-16,12.5-16h50C460,134,465.5,141,465.5,150z"/>
<linearGradient id="SVGID_2_" gradientUnits="userSpaceOnUse" x1="270.5" y1="360" x2="345.5" y2="360">
	<stop  offset="0" style="stop-color:#FFDE6A"/>
	<stop  offset="1" style="stop-color:#FFC000"/>
</linearGradient>
<path class="st2" d="M345.5,240.3V496h-75V240.3c0-9.1,5.5-16.3,12.5-16.3h50C340,224,345.5,231.2,345.5,240.3z"/>
<linearGradient id="SVGID_3_" gradientUnits="userSpaceOnUse" x1="32" y1="420" x2="107" y2="420">
	<stop  offset="0" style="stop-color:#A7F3CE"/>
	<stop  offset="1" style="stop-color:#61DB99"/>
</linearGradient>
<path class="st3" d="M107,361.5V496H32V361.5c0-9.8,5.5-17.5,12.5-17.5h50C101.5,344,107,351.7,107,361.5z"/>
<linearGradient id="SVGID_4_" gradientUnits="userSpaceOnUse" x1="147.25" y1="390" x2="222.25" y2="390">
	<stop  offset="0" style="stop-color:#55E0FF"/>
	<stop  offset="1" style="stop-color:#15BAFF"/>
</linearGradient>
<path class="st4" d="M222.3,300.7V496h-75V300.7c0-9.4,5.5-16.7,12.5-16.7h50C216.8,284,222.3,291.3,222.3,300.7z"/>
</svg>
