<?xml version="1.0" encoding="utf-8"?>
<!-- Generator: Adobe Illustrator 23.0.0, SVG Export Plug-In . SVG Version: 6.00 Build 0)  -->
<svg version="1.1" id="Layer_1" xmlns="http://www.w3.org/2000/svg" xmlns:xlink="http://www.w3.org/1999/xlink" x="0px" y="0px"
	 width="522.9px" height="522.9px" viewBox="0 0 522.9 522.9" style="enable-background:new 0 0 522.9 522.9;" xml:space="preserve"
	>
<style type="text/css">
	.st0{fill:#B9BCC1;}
	.st1{fill:#D0D3D6;}
	.st2{fill:url(#SVGID_1_);}
	.st3{fill:url(#SVGID_2_);}
	.st4{fill:#FFFFFF;}
</style>
<path class="st0" d="M179.8,408.6h163.4v98.1H179.8V408.6z"/>
<path class="st1" d="M375.9,522.9H147.1c-9,0-16.3-7.3-16.3-16.3c0-9,7.3-16.3,16.3-16.3h228.8c9,0,16.3,7.3,16.3,16.3
	C392.2,515.6,384.9,522.9,375.9,522.9z"/>
<linearGradient id="SVGID_1_" gradientUnits="userSpaceOnUse" x1="261.4746" y1="359.5273" x2="261.4746" y2="-9.094947e-13">
	<stop  offset="0" style="stop-color:#15BAFF"/>
	<stop  offset="1" style="stop-color:#55E0FF"/>
</linearGradient>
<path class="st2" d="M522.9,32.7c0-18.1-14.6-32.7-32.7-32.7H32.7C14.6,0,0,14.6,0,32.7v326.8h522.9V32.7z"/>
<linearGradient id="SVGID_2_" gradientUnits="userSpaceOnUse" x1="0" y1="392.2109" x2="522.9492" y2="392.2109">
	<stop  offset="0" style="stop-color:#F0F1F2"/>
	<stop  offset="1" style="stop-color:#B9BCC1"/>
</linearGradient>
<path class="st3" d="M0,343.2v65.4c0,18.1,14.6,32.7,32.7,32.7h457.6c18.1,0,32.7-14.6,32.7-32.7v-65.4H0z"/>
<g>
	<path class="st4" d="M140.3,245.1l-65.4-65.4l65.4-65.4c6.4-6.4,16.7-6.4,23.1,0c6.4,6.4,6.4,16.7,0,23.1l-42.3,42.3l42.3,42.3
		c6.4,6.4,6.4,16.7,0,23.1S146.7,251.5,140.3,245.1z"/>
	<path class="st4" d="M359.5,245.1c-6.4-6.4-6.4-16.7,0-23.1l42.3-42.3l-42.3-42.3c-6.4-6.4-6.4-16.7,0-23.1
		c6.4-6.4,16.7-6.4,23.1,0l65.4,65.4l-65.4,65.4C376.3,251.5,365.9,251.5,359.5,245.1z"/>
	<path class="st4" d="M228.8,245.1c-8.1-4-11.4-13.9-7.3-21.9l50.8-101.5c4-8.1,13.9-11.3,21.9-7.3c8.1,4,11.3,13.9,7.3,21.9
		l-50.8,101.5C246.7,245.9,236.9,249.2,228.8,245.1z"/>
</g>
</svg>
