<?xml version="1.0" encoding="utf-8"?>
<!-- Generator: Adobe Illustrator 23.0.0, SVG Export Plug-In . SVG Version: 6.00 Build 0)  -->
<svg version="1.1" id="Layer_1" xmlns="http://www.w3.org/2000/svg" xmlns:xlink="http://www.w3.org/1999/xlink" x="0px" y="0px"
	 width="512px" height="512px" viewBox="0 0 512 512" style="enable-background:new 0 0 512 512;" xml:space="preserve">
<style type="text/css">
	.st0{fill:url(#SVGID_1_);}
	.st1{fill:url(#SVGID_2_);}
	.st2{fill:url(#SVGID_3_);}
	.st3{fill:url(#SVGID_4_);}
	.st4{fill:url(#SVGID_5_);}
	.st5{fill:url(#SVGID_6_);}
	.st6{fill:url(#SVGID_7_);}
	.st7{fill:url(#SVGID_8_);}
	.st8{fill:url(#SVGID_9_);}
	.st9{fill:url(#SVGID_10_);}
	.st10{fill:url(#SVGID_11_);}
</style>
<linearGradient id="SVGID_1_" gradientUnits="userSpaceOnUse" x1="216.0002" y1="194.9624" x2="296.0002" y2="194.9624">
	<stop  offset="0" style="stop-color:#202023"/>
	<stop  offset="1" style="stop-color:#454647"/>
</linearGradient>
<path class="st0" d="M292.8,174L235,231.8c-2.2,2-5.1,3.1-7.8,3.1c-2.9,0-5.8-1.1-8-3.1c-4.2-4.5-4.2-11.6,0-15.8l57.8-57.8
	c4.2-4.2,11.4-4.2,15.8,0C297.1,162.6,297.1,169.8,292.8,174z"/>
<linearGradient id="SVGID_2_" gradientUnits="userSpaceOnUse" x1="96" y1="224.9984" x2="176" y2="224.9984">
	<stop  offset="0" style="stop-color:#202023"/>
	<stop  offset="1" style="stop-color:#454647"/>
</linearGradient>
<path class="st1" d="M163.5,251.2c-1.9,0-3.8-0.4-5.6-1.3l-55.1-27.5c-6.2-3.1-8.7-10.6-5.6-16.7c3.1-6.1,10.6-8.7,16.7-5.6
	l55.1,27.5c6.2,3.1,8.7,10.6,5.6,16.7C172.5,248.7,168.1,251.2,163.5,251.2z"/>
<linearGradient id="SVGID_3_" gradientUnits="userSpaceOnUse" x1="336" y1="89.994" x2="416" y2="89.994">
	<stop  offset="0" style="stop-color:#202023"/>
	<stop  offset="1" style="stop-color:#454647"/>
</linearGradient>
<path class="st2" d="M347.8,122.9c-3.6,0-7.1-1.6-9.4-4.7c-3.9-5.2-2.8-12.6,2.4-16.5l56.5-42.3c5.2-3.9,12.5-2.9,16.5,2.4
	c3.9,5.2,2.8,12.6-2.4,16.5l-56.5,42.3C352.7,122.2,350.2,122.9,347.8,122.9z"/>
<linearGradient id="SVGID_4_" gradientUnits="userSpaceOnUse" x1="31" y1="195" x2="121" y2="195">
	<stop  offset="0" style="stop-color:#55E0FF"/>
	<stop  offset="1" style="stop-color:#15BAFF"/>
</linearGradient>
<path class="st3" d="M76,150c-24.9,0-45,20.1-45,45c0,24.9,20.1,45,45,45s45-20.1,45-45C121,170.1,100.9,150,76,150z"/>
<linearGradient id="SVGID_5_" gradientUnits="userSpaceOnUse" x1="151" y1="255" x2="241" y2="255">
	<stop  offset="0" style="stop-color:#A7F3CE"/>
	<stop  offset="1" style="stop-color:#61DB99"/>
</linearGradient>
<path class="st4" d="M196,210c-24.9,0-45,20.1-45,45c0,24.9,20.1,45,45,45s45-20.1,45-45C241,230.1,220.9,210,196,210z"/>
<linearGradient id="SVGID_6_" gradientUnits="userSpaceOnUse" x1="271" y1="135" x2="361" y2="135">
	<stop  offset="0" style="stop-color:#FFDE6A"/>
	<stop  offset="1" style="stop-color:#FFC000"/>
</linearGradient>
<path class="st5" d="M316,90c-24.9,0-45,20.1-45,45c0,24.9,20.1,45,45,45s45-20.1,45-45C361,110.1,340.9,90,316,90z"/>
<linearGradient id="SVGID_7_" gradientUnits="userSpaceOnUse" x1="391" y1="45" x2="481" y2="45">
	<stop  offset="0" style="stop-color:#FF7F83"/>
	<stop  offset="1" style="stop-color:#FF3F45"/>
</linearGradient>
<path class="st6" d="M436,0c-24.9,0-45,20.1-45,45c0,24.9,20.1,45,45,45s45-20.1,45-45C481,20.1,460.9,0,436,0z"/>
<linearGradient id="SVGID_8_" gradientUnits="userSpaceOnUse" x1="398.5" y1="331" x2="473.5" y2="331">
	<stop  offset="0" style="stop-color:#FF7F83"/>
	<stop  offset="1" style="stop-color:#FF3F45"/>
</linearGradient>
<path class="st7" d="M473.5,166v346h-75V166c0-8.9,5.5-16,12.5-16h50C468,150,473.5,157,473.5,166z"/>
<linearGradient id="SVGID_9_" gradientUnits="userSpaceOnUse" x1="278.5" y1="376" x2="353.5" y2="376">
	<stop  offset="0" style="stop-color:#FFDE6A"/>
	<stop  offset="1" style="stop-color:#FFC000"/>
</linearGradient>
<path class="st8" d="M353.5,256.3V512h-75V256.3c0-9.1,5.5-16.3,12.5-16.3h50C348,240,353.5,247.2,353.5,256.3z"/>
<linearGradient id="SVGID_10_" gradientUnits="userSpaceOnUse" x1="158.5" y1="436" x2="233.5" y2="436">
	<stop  offset="0" style="stop-color:#A7F3CE"/>
	<stop  offset="1" style="stop-color:#61DB99"/>
</linearGradient>
<path class="st9" d="M233.5,377.5V512h-75V377.5c0-9.8,5.5-17.5,12.5-17.5h50C228,360,233.5,367.7,233.5,377.5z"/>
<linearGradient id="SVGID_11_" gradientUnits="userSpaceOnUse" x1="38.5" y1="406" x2="113.5" y2="406">
	<stop  offset="0" style="stop-color:#55E0FF"/>
	<stop  offset="1" style="stop-color:#15BAFF"/>
</linearGradient>
<path class="st10" d="M113.5,316.7V512h-75V316.7c0-9.4,5.5-16.7,12.5-16.7h50C108,300,113.5,307.3,113.5,316.7z"/>
</svg>
