<?xml version="1.0" encoding="utf-8"?>
<!-- Generator: Adobe Illustrator 23.0.0, SVG Export Plug-In . SVG Version: 6.00 Build 0)  -->
<svg version="1.1" id="Capa_1" xmlns="http://www.w3.org/2000/svg" xmlns:xlink="http://www.w3.org/1999/xlink" x="0px" y="0px"
	 width="512px" height="512px" viewBox="0 0 512 512" style="enable-background:new 0 0 512 512;" xml:space="preserve">
<style type="text/css">
	.st0{fill:url(#SVGID_1_);}
	.st1{fill:url(#SVGID_2_);}
	.st2{fill:url(#SVGID_3_);}
	.st3{fill:#3B4041;}
</style>
<linearGradient id="SVGID_1_" gradientUnits="userSpaceOnUse" x1="257.1796" y1="15.9995" x2="257.1796" y2="249.4877">
	<stop  offset="0" style="stop-color:#C3C3C3"/>
	<stop  offset="1" style="stop-color:#888C91"/>
</linearGradient>
<path class="st0" d="M411.4,249.5H103v-79.3C103,85.2,172.1,16,257.2,16c85,0,154.2,69.2,154.2,154.2L411.4,249.5L411.4,249.5z
	 M154,198.5h206.4v-28.3c0-56.9-46.3-103.2-103.2-103.2C200.3,67,154,113.3,154,170.2L154,198.5L154,198.5z"/>
<linearGradient id="SVGID_2_" gradientUnits="userSpaceOnUse" x1="249.3408" y1="815.3517" x2="285.0081" y2="964.3416" gradientTransform="matrix(1.0039 0 0 1.0039 1.1399 -486.393)">
	<stop  offset="0" style="stop-color:#FFDE6A"/>
	<stop  offset="1" style="stop-color:#FFC000"/>
</linearGradient>
<path class="st1" d="M395.8,496H116.2c-16.8,0-30.4-13.6-30.4-30.4v-229c0-16.8,13.6-30.4,30.4-30.4h279.6
	c16.8,0,30.4,13.6,30.4,30.4v229C426.2,482.4,412.6,496,395.8,496z"/>
<linearGradient id="SVGID_3_" gradientUnits="userSpaceOnUse" x1="253.8695" y1="717.1207" x2="253.8695" y2="867.4474" gradientTransform="matrix(1.0039 0 0 1.0039 1.1399 -486.393)">
	<stop  offset="0" style="stop-color:#FFD76A"/>
	<stop  offset="1" style="stop-color:#FFB400"/>
</linearGradient>
<path class="st2" d="M413.4,282.4H98.6c-13.9,0-25.2-11.3-25.2-25.2v-48.6c0-13.9,11.3-25.2,25.2-25.2h314.9
	c13.9,0,25.2,11.3,25.2,25.2v48.6C438.6,271.2,427.3,282.4,413.4,282.4z"/>
<path class="st3" d="M284.3,362c0-15.6-12.7-28.3-28.3-28.3s-28.3,12.7-28.3,28.3c0,10.5,5.7,19.6,14.1,24.5v33.1
	c0,7.8,6.3,14.2,14.2,14.2c7.8,0,14.2-6.3,14.2-14.2v-33.1C278.6,381.6,284.3,372.5,284.3,362z"/>
</svg>
