<?xml version="1.0" encoding="utf-8"?>
<!-- Generator: Adobe Illustrator 23.0.0, SVG Export Plug-In . SVG Version: 6.00 Build 0)  -->
<svg version="1.1" id="Capa_1" xmlns="http://www.w3.org/2000/svg" xmlns:xlink="http://www.w3.org/1999/xlink" x="0px" y="0px"
	 width="512px" height="512px" viewBox="0 0 512 512" style="enable-background:new 0 0 512 512;" xml:space="preserve">
<style type="text/css">
	.st0{fill:url(#SVGID_1_);}
	.st1{fill:url(#SVGID_2_);}
	.st2{fill:url(#SVGID_3_);}
	.st3{fill:url(#SVGID_4_);}
	.st4{fill:url(#SVGID_5_);}
	.st5{fill:url(#SVGID_6_);}
	.st6{fill:url(#SVGID_7_);}
	.st7{fill:url(#SVGID_8_);}
	.st8{fill:url(#bg_1_);}
	.st9{fill:#FFFFFF;}
</style>
<linearGradient id="SVGID_1_" gradientUnits="userSpaceOnUse" x1="71.2482" y1="764.9542" x2="508.8745" y2="764.9542" gradientTransform="matrix(1.0039 0 0 1.0039 1.1399 -486.3914)">
	<stop  offset="0" style="stop-color:#61DB99"/>
	<stop  offset="1" style="stop-color:#009E74"/>
</linearGradient>
<path class="st0" d="M495.5,392.9H89.1c-9.1,0-16.5-7.4-16.5-16.5V186.6c0-9.1,7.4-16.5,16.5-16.5h406.4c9.1,0,16.5,7.4,16.5,16.5
	v189.8C512,385.6,504.6,392.9,495.5,392.9z"/>
<linearGradient id="SVGID_2_" gradientUnits="userSpaceOnUse" x1="309.8294" y1="831.8511" x2="286.8896" y2="748.4111" gradientTransform="matrix(1.0039 0 0 1.0039 1.1399 -486.3914)">
	<stop  offset="0" style="stop-color:#009E74;stop-opacity:0"/>
	<stop  offset="1" style="stop-color:#009E74"/>
</linearGradient>
<path class="st1" d="M73.1,369.6l23.3,23.3h399.1c9.1,0,16.5-7.4,16.5-16.5V186.6c0-9.1-7.4-16.5-16.5-16.5H89.1
	c-9.1,0-16.5,7.4-16.5,16.5v182L73.1,369.6z"/>
<linearGradient id="SVGID_3_" gradientUnits="userSpaceOnUse" x1="46.6352" y1="740.3403" x2="484.2614" y2="740.3403" gradientTransform="matrix(1.0039 0 0 1.0039 1.1399 -486.3914)">
	<stop  offset="0" style="stop-color:#61DB99"/>
	<stop  offset="1" style="stop-color:#009E74"/>
</linearGradient>
<path class="st2" d="M470.8,368.2H64.4c-9.1,0-16.5-7.4-16.5-16.5V161.9c0-9.1,7.4-16.5,16.5-16.5h406.4c9.1,0,16.5,7.4,16.5,16.5
	v189.8C487.3,360.8,479.9,368.2,470.8,368.2z"/>
<linearGradient id="SVGID_4_" gradientUnits="userSpaceOnUse" x1="282.5038" y1="817.3105" x2="267.3737" y2="744.8206" gradientTransform="matrix(1.0039 0 0 1.0039 1.1399 -486.3914)">
	<stop  offset="0" style="stop-color:#009E74;stop-opacity:0"/>
	<stop  offset="1" style="stop-color:#009E74"/>
</linearGradient>
<path class="st3" d="M48.4,344.9l23.3,23.3h399.1c9.1,0,16.5-7.4,16.5-16.5V161.9c0-9.1-7.4-16.5-16.5-16.5H64.4
	c-9.1,0-16.5,7.4-16.5,16.5v182L48.4,344.9z"/>
<linearGradient id="SVGID_5_" gradientUnits="userSpaceOnUse" x1="22.0202" y1="715.7263" x2="459.6465" y2="715.7263" gradientTransform="matrix(1.0039 0 0 1.0039 1.1399 -486.3914)">
	<stop  offset="0" style="stop-color:#61DB99"/>
	<stop  offset="1" style="stop-color:#009E74"/>
</linearGradient>
<path class="st4" d="M446.1,343.5H39.7c-9.1,0-16.5-7.4-16.5-16.5V137.2c0-9.1,7.4-16.5,16.5-16.5h406.4c9.1,0,16.5,7.4,16.5,16.5
	V327C462.6,336.1,455.2,343.5,446.1,343.5z"/>
<linearGradient id="SVGID_6_" gradientUnits="userSpaceOnUse" x1="273.7667" y1="841.202" x2="203.3868" y2="562.5419" gradientTransform="matrix(1.0039 0 0 1.0039 1.1399 -486.3914)">
	<stop  offset="0" style="stop-color:#009E74;stop-opacity:0"/>
	<stop  offset="1" style="stop-color:#009E74"/>
</linearGradient>
<path class="st5" d="M23.7,320.2L47,343.5h399.1c9.1,0,16.5-7.4,16.5-16.5V137.2c0-9.1-7.4-16.5-16.5-16.5H39.7
	c-9.1,0-16.5,7.4-16.5,16.5v182L23.7,320.2z"/>
<linearGradient id="SVGID_7_" gradientUnits="userSpaceOnUse" x1="-1.1355" y1="692.5706" x2="436.4908" y2="692.5706" gradientTransform="matrix(1.0039 0 0 1.0039 1.1399 -486.3914)">
	<stop  offset="0" style="stop-color:#A7F3CE"/>
	<stop  offset="1" style="stop-color:#61DB99"/>
</linearGradient>
<path class="st6" d="M422.9,320.3H16.5c-9.1,0-16.5-7.4-16.5-16.5V114c0-9.1,7.4-16.5,16.5-16.5h406.4c9.1,0,16.5,7.4,16.5,16.5
	v189.8C439.3,312.9,432,320.3,422.9,320.3z"/>
<linearGradient id="SVGID_8_" gradientUnits="userSpaceOnUse" x1="103.3623" y1="578.2547" x2="381.8323" y2="856.7247" gradientTransform="matrix(1.0039 0 0 1.0039 1.1399 -486.3914)">
	<stop  offset="0" style="stop-color:#61DB99"/>
	<stop  offset="1" style="stop-color:#009E74"/>
</linearGradient>
<path class="st7" d="M414.5,144.6c-11.9-0.6-21.7-10.4-22.3-22.3c-0.1-2.6,0.2-5.2,0.8-7.6l0,0H46.3l0,0c0.7,2.4,1,4.9,0.8,7.6
	c-0.6,11.9-10.4,21.7-22.3,22.3c-4.1,0.2-7.9-0.6-11.4-2.2l0,0v133.1l0,0c3.4-1.6,7.3-2.5,11.4-2.2c11.9,0.6,21.7,10.4,22.3,22.3
	c0.1,2.6-0.2,5.2-0.8,7.6l0,0h346.8l0,0c-0.7-2.4-1-4.9-0.8-7.6c0.6-11.9,10.4-21.7,22.3-22.3c4.1-0.2,7.9,0.6,11.4,2.2l0,0V142.4
	l0,0C422.5,144,418.6,144.8,414.5,144.6z"/>
<linearGradient id="bg_1_" gradientUnits="userSpaceOnUse" x1="195.0563" y1="346.7982" x2="243.1809" y2="263.444" gradientTransform="matrix(1 0 0 -1 0 514)">
	<stop  offset="0" style="stop-color:#61DB99"/>
	<stop  offset="1" style="stop-color:#009E74"/>
</linearGradient>
<path id="bg" class="st8" d="M241.3,248.9h-44.4c-9.8,0-17.8-7.9-17.8-17.8v-44.4c0-9.8,7.9-17.8,17.8-17.8h44.4
	c9.8,0,17.8,7.9,17.8,17.8v44.4C259.1,240.9,251.1,248.9,241.3,248.9z"/>
<path id="u" class="st9" d="M242.8,232c-0.1,0.1-1.3,1.4-3.1,1.3c-0.8,0-1.6-0.3-2.3-0.8c-0.1-0.1-0.2-0.1-0.2-0.2
	c-0.4-0.4-1.4-1.3-2.5-2.4l-0.5-0.5l0,0c-1-1-2.1-2.1-2.9-3c-1.4-1.6-1.4-4,0.1-5.6c0.1-0.1,1.3-1.4,3.1-1.3c0.9,0,1.8,0.4,2.5,1
	l6,6c0.5,0.7,0.8,1.5,0.8,2.3C243.9,230,243.5,231.1,242.8,232z"/>
<path id="Q" class="st9" d="M226.4,184.6c-0.1-0.1-0.2-0.1-0.3-0.1c-0.1-0.1-0.3-0.1-0.5-0.1c-0.1,0-0.2-0.1-0.3-0.1
	c-0.1,0-0.2-0.1-0.3-0.1c-0.1-0.1-0.2-0.1-0.3-0.1c-0.1-0.1-0.3-0.1-0.5-0.1c-0.2-0.1-0.5-0.1-0.7-0.1c-0.2-0.1-0.3-0.1-0.5-0.1
	c-0.1,0-0.2-0.1-0.4-0.1c-1.1-0.1-2.2-0.2-3.3-0.2c-0.4,0-0.8,0-1.1,0.1c-0.4,0-0.7,0-1.1,0.1c-0.1,0-0.2,0-0.3,0.1
	c-0.1,0-0.2,0-0.3,0.1c-0.1,0-0.3,0.1-0.5,0.1c-0.1,0-0.2,0.1-0.3,0.1l0,0c-0.1,0-0.3,0.1-0.5,0.1l0,0c-0.2,0.1-0.4,0.1-0.6,0.1
	c-13.8,2.5-22.9,15.8-20.3,29.5c2.2,12,12.7,20.8,25,20.8h0.4c4.5-0.1,8.9-1.3,12.7-3.6l0,0c0.5-0.3,0.9-0.6,1.1-0.8
	c-0.9-0.9-1.8-1.9-2.8-2.8c-0.7-0.7-1.1-1.6-1.3-2.5c-0.1-0.8-0.1-1.6,0.2-2.3c-1.6,1.3-5.4,3.7-10.4,3.7c-2.6-0.1-5.2-0.8-7.5-2
	c-1.2-0.6-2.3-1.4-3.3-2.2l0,0c-3.6-3-6.1-7.3-6.1-12.7c0-9.3,7.6-16.9,16.9-16.9l0,0c9.9,0,16.8,8.6,16.9,16.9
	c0.1,4.4-1.8,7.9-3.6,10.2c0.7-0.3,1.5-0.4,2.3-0.3c0.7,0.1,1.4,0.4,2,0.7c0.3,0.2,0.6,0.4,0.9,0.6c0,0,1,1.1,2.6,2.7
	c1.4-2.1,2.4-4.3,3.1-6.7c0,0,1.1-3.6,1.1-7.3C244.7,197.7,237.2,187.7,226.4,184.6z"/>
<g>
	<path class="st9" d="M338.7,281.5c-2.3-0.7-4.2-1.4-6.4-2.3c-0.4-0.1-0.7-0.2-1.1-0.2c-3.7-0.2-7.1-2.9-7.1-8.2
		c0-4.9,3.1-8.5,7.9-8.5c4.9,0,7.6,3.7,7.6,8.2c0,3.7-1.7,6.3-3.8,7.2v0.1c1.2,0.4,2.6,0.7,3.9,0.9L338.7,281.5z M331.9,276.1
		c2.5,0,3.9-2.3,3.9-5.5c0-3-1.4-5.4-3.9-5.4s-3.9,2.4-3.9,5.5C328,273.8,329.5,276.1,331.9,276.1L331.9,276.1z"/>
	<path class="st9" d="M342.1,262.8c1.1-0.2,2.7-0.3,4.9-0.3c2.3,0,3.9,0.4,4.9,1.3c1.1,0.8,1.7,2.1,1.7,3.7c0,1.6-0.5,3-1.5,3.8
		c-1.2,1.2-3.1,1.7-5.3,1.7c-0.5,0-0.9,0-1.2-0.1v5.8h-3.6V262.8z M345.7,270.1c0.3,0.1,0.7,0.1,1.2,0.1c1.9,0,3.1-1,3.1-2.6
		c0-1.5-1-2.4-2.9-2.4c-0.7,0-1.2,0-1.5,0.1V270.1z"/>
	<path class="st9" d="M358.3,274.6l-1.1,4.2h-3.8l4.9-16.2h4.8l5,16.2h-3.9l-1.2-4.2H358.3z M362.4,271.9l-1-3.4
		c-0.3-1-0.6-2.2-0.8-3.1h-0.1c-0.2,1-0.5,2.2-0.7,3.1l-1,3.4H362.4z"/>
	<path class="st9" d="M371.8,278.8v-6.6l-5.1-9.6h4.2l1.6,3.9c0.5,1.2,0.9,2,1.2,3.1h0c0.4-1,0.7-1.9,1.2-3.1l1.6-3.9h4.1l-5.3,9.4
		v6.7H371.8z"/>
</g>
</svg>
