<?xml version="1.0" encoding="utf-8"?>
<!-- Generator: Adobe Illustrator 23.0.0, SVG Export Plug-In . SVG Version: 6.00 Build 0)  -->
<svg version="1.1" id="Capa_1" xmlns="http://www.w3.org/2000/svg" xmlns:xlink="http://www.w3.org/1999/xlink" x="0px" y="0px"
	 width="512px" height="512px" viewBox="0 0 512 512" style="enable-background:new 0 0 512 512;" xml:space="preserve">
<style type="text/css">
	.st0{fill:url(#SVGID_1_);}
	.st1{fill:url(#SVGID_2_);}
</style>
<linearGradient id="SVGID_1_" gradientUnits="userSpaceOnUse" x1="169.9867" y1="-110.2732" x2="568.8668" y2="-509.1531" gradientTransform="matrix(1.0039 0 0 -1.0039 2.0876 30.561)">
	<stop  offset="0" style="stop-color:#62E1FB"/>
	<stop  offset="1" style="stop-color:#00A2F3"/>
</linearGradient>
<path class="st0" d="M490.4,123.6c-0.2-11.5-8.8-21-20.1-22.5c-104.8-13.6-177.6-72.6-203.7-97c-6-5.6-15.3-5.6-21.2,0
	c-26.1,24.4-98.9,83.4-203.7,97c-11.4,1.5-20,11-20.1,22.5c-1,75,11.9,332.7,234.4,388.4C478.5,456.4,491.5,198.6,490.4,123.6z"/>
<linearGradient id="SVGID_2_" gradientUnits="userSpaceOnUse" x1="182.3842" y1="-129.5051" x2="375.6678" y2="-322.7885" gradientTransform="matrix(1.0039 0 0 -1.0039 2.0876 30.561)">
	<stop  offset="0" style="stop-color:#A7F3CE"/>
	<stop  offset="1" style="stop-color:#61DB99"/>
</linearGradient>
<path class="st1" d="M439.1,152.6c-0.1-9-6.8-16.4-15.7-17.6c-81.9-10.5-138.8-56.7-159.1-75.8c-4.7-4.3-11.9-4.3-16.6,0
	c-20.4,19.1-77.2,65.1-159.1,75.8c-8.9,1.2-15.6,8.6-15.7,17.6c-0.9,58.6,9.2,260,183,303.4C429.8,412.5,440,211.1,439.1,152.6z"/>
</svg>
