<?xml version="1.0" encoding="utf-8"?>
<!-- Generator: Adobe Illustrator 23.0.0, SVG Export Plug-In . SVG Version: 6.00 Build 0)  -->
<svg version="1.1" id="Capa_1" xmlns="http://www.w3.org/2000/svg" xmlns:xlink="http://www.w3.org/1999/xlink" x="0px" y="0px"
	 width="512px" height="512px" viewBox="0 0 512 512" style="enable-background:new 0 0 512 512;" xml:space="preserve">
<style type="text/css">
	.st0{fill:url(#SVGID_1_);}
	.st1{fill:url(#SVGID_2_);}
	.st2{fill:url(#SVGID_3_);}
	.st3{fill:url(#SVGID_4_);}
	.st4{fill:url(#SVGID_5_);}
	.st5{fill:url(#SVGID_6_);}
	.st6{fill:url(#SVGID_7_);}
	.st7{fill:url(#SVGID_8_);}
	.st8{fill:url(#SVGID_9_);}
	.st9{fill:url(#SVGID_10_);}
</style>
<g>
	
		<linearGradient id="SVGID_1_" gradientUnits="userSpaceOnUse" x1="186.9888" y1="773.643" x2="186.9888" y2="945.743" gradientTransform="matrix(1.0039 0 0 1.0039 1.1399 -486.3914)">
		<stop  offset="0" style="stop-color:#A7F3CE"/>
		<stop  offset="1" style="stop-color:#61DB99"/>
	</linearGradient>
	<circle class="st0" cx="188.9" cy="298.3" r="23.7"/>
	
		<linearGradient id="SVGID_2_" gradientUnits="userSpaceOnUse" x1="253.87" y1="773.643" x2="253.87" y2="945.743" gradientTransform="matrix(1.0039 0 0 1.0039 1.1399 -486.3914)">
		<stop  offset="0" style="stop-color:#A7F3CE"/>
		<stop  offset="1" style="stop-color:#61DB99"/>
	</linearGradient>
	<circle class="st1" cx="256" cy="298.3" r="23.7"/>
	
		<linearGradient id="SVGID_3_" gradientUnits="userSpaceOnUse" x1="320.7511" y1="773.643" x2="320.7511" y2="945.743" gradientTransform="matrix(1.0039 0 0 1.0039 1.1399 -486.3914)">
		<stop  offset="0" style="stop-color:#A7F3CE"/>
		<stop  offset="1" style="stop-color:#61DB99"/>
	</linearGradient>
	<circle class="st2" cx="323.1" cy="298.3" r="23.7"/>
</g>
<linearGradient id="SVGID_4_" gradientUnits="userSpaceOnUse" x1="253.87" y1="518.5551" x2="253.87" y2="759.4515" gradientTransform="matrix(1.0039 0 0 1.0039 1.1399 -486.3914)">
	<stop  offset="0" style="stop-color:#55E0FF"/>
	<stop  offset="1" style="stop-color:#15BAFF"/>
</linearGradient>
<path class="st3" d="M256,34.2c-125,0-226.3,101.3-226.3,226.3c0,5.2,0.2,10.4,0.5,15.6h67.1c-0.5-5.1-0.8-10.3-0.8-15.6
	C96.6,172.4,168,101,256,101c88,0,159.4,71.4,159.4,159.4c0,5.3-0.3,10.5-0.8,15.6h67.1c0.4-5.1,0.5-10.3,0.5-15.6
	C482.3,135.5,381,34.2,256,34.2z"/>
<linearGradient id="SVGID_5_" gradientUnits="userSpaceOnUse" x1="126.9943" y1="728.763" x2="126.9943" y2="908.783" gradientTransform="matrix(1.0039 0 0 1.0039 1.1399 -486.3914)">
	<stop  offset="0" style="stop-color:#F2F2F2"/>
	<stop  offset="1" style="stop-color:#C3C3C3"/>
</linearGradient>
<path class="st4" d="M213.4,469h-49.3c-66.3,0-120.2-53.9-120.2-120.2v-12.2h21.9v12.2c0,54.2,44.1,98.3,98.3,98.3h49.3V469z"/>
<linearGradient id="SVGID_6_" gradientUnits="userSpaceOnUse" x1="50.1375" y1="714.5098" x2="50.1375" y2="845.4193" gradientTransform="matrix(1.0039 0 0 1.0039 1.1399 -486.3914)">
	<stop  offset="0" style="stop-color:#FFDE6A"/>
	<stop  offset="1" style="stop-color:#FFC000"/>
</linearGradient>
<path class="st5" d="M102.9,362.3H52.8C23.6,362.3,0,338.7,0,309.5v-25.8c0-29.2,23.6-52.8,52.8-52.8h50.1V362.3z"/>
<linearGradient id="SVGID_7_" gradientUnits="userSpaceOnUse" x1="170.5338" y1="854.8961" x2="196.1438" y2="882.5861" gradientTransform="matrix(1.0039 0 0 1.0039 1.1399 -486.3914)">
	<stop  offset="0" style="stop-color:#FFDE6A"/>
	<stop  offset="1" style="stop-color:#FFC000"/>
</linearGradient>
<path class="st6" d="M102.8,370.5L102.8,370.5c-10.1,0-18.4-8.2-18.4-18.4v-111c0-10.1,8.2-18.4,18.4-18.4l0,0
	c10.1,0,18.4,8.2,18.4,18.4v111C121.1,362.2,112.9,370.5,102.8,370.5z"/>
<linearGradient id="SVGID_8_" gradientUnits="userSpaceOnUse" x1="457.6024" y1="714.5098" x2="457.6024" y2="845.4193" gradientTransform="matrix(1.0039 0 0 1.0039 1.1399 -486.3914)">
	<stop  offset="0" style="stop-color:#FFDE6A"/>
	<stop  offset="1" style="stop-color:#FFC000"/>
</linearGradient>
<path class="st7" d="M409.1,362.3h50.1c29.2,0,52.8-23.6,52.8-52.8v-25.8c0-29.2-23.6-52.8-52.8-52.8h-50.1L409.1,362.3L409.1,362.3
	z"/>
<linearGradient id="SVGID_9_" gradientUnits="userSpaceOnUse" x1="438.2333" y1="779.965" x2="449.9574" y2="779.965" gradientTransform="matrix(1.0039 0 0 1.0039 1.1399 -486.3914)">
	<stop  offset="0" style="stop-color:#FFDE6A"/>
	<stop  offset="1" style="stop-color:#FFC000"/>
</linearGradient>
<path class="st8" d="M409.2,370.5L409.2,370.5c-10.1,0-18.4-8.2-18.4-18.4v-111c0-10.1,8.2-18.4,18.4-18.4l0,0
	c10.1,0,18.4,8.2,18.4,18.4v111C427.6,362.2,419.4,370.5,409.2,370.5z"/>
<linearGradient id="SVGID_10_" gradientUnits="userSpaceOnUse" x1="200.9275" y1="924.983" x2="200.9275" y2="952.673" gradientTransform="matrix(1.0039 0 0 1.0039 1.1399 -486.3914)">
	<stop  offset="0" style="stop-color:#FFDE6A"/>
	<stop  offset="1" style="stop-color:#FFC000"/>
</linearGradient>
<path class="st9" d="M205.5,477.8h-5.3c-11.2,0-20.2-9.1-20.2-20.2l0,0c0-11.2,9.1-20.2,20.2-20.2h5.3c11.2,0,20.2,9.1,20.2,20.2
	l0,0C225.8,468.8,216.7,477.8,205.5,477.8z"/>
</svg>
