<?xml version="1.0" encoding="utf-8"?>
<!-- Generator: Adobe Illustrator 23.0.0, SVG Export Plug-In . SVG Version: 6.00 Build 0)  -->
<svg version="1.1" id="QuantaEx" xmlns="http://www.w3.org/2000/svg" xmlns:xlink="http://www.w3.org/1999/xlink" x="0px" y="0px"
	 width="1750px" height="320px" viewBox="0 0 1750 320" style="enable-background:new 0 0 1750 320;" xml:space="preserve">
<style type="text/css">
	.st0{fill:url(#Q_2_);}
	.st1{fill:url(#U_1_);}
	.st2{fill:url(#A_2_);}
	.st3{fill:url(#N_1_);}
	.st4{fill:url(#T_1_);}
	.st5{fill:url(#A_3_);}
	.st6{fill:url(#E_1_);}
	.st7{fill:url(#X_1_);}
	.st8{fill:url(#bg_1_);}
	.st9{fill:#FFFFFF;enable-background:new    ;}
</style>
<linearGradient id="Q_2_" gradientUnits="userSpaceOnUse" x1="418.5908" y1="50.5452" x2="555.9321" y2="288.4275">
	<stop  offset="0.3571" style="stop-color:#0075F9"/>
	<stop  offset="0.6542" style="stop-color:#0069E5"/>
	<stop  offset="0.9874" style="stop-color:#005ED3"/>
</linearGradient>
<path id="Q_1_" class="st0" d="M561.3,285.3c-28.3-8.2-56.2-18.1-83.4-29.7c-4.6-1.8-9.4-2.8-14.4-3.1
	c-47.8-3.1-92.1-38.1-92.1-106.8c0-63.4,40-110.5,103-110.5c64,0,99.3,48.7,99.3,106.1c0,47.8-22.2,81.5-49.6,94v1.3
	c15.9,4.7,34,8.7,50.6,11.9L561.3,285.3z M473,214.8c32.2,0,50.6-30.3,50.6-71.5c0-38.4-18.1-70.2-50.6-70.2s-51.2,31.5-51.2,71.2
	C421.7,184.5,440.8,214.8,473,214.8z"/>
<linearGradient id="U_1_" gradientUnits="userSpaceOnUse" x1="633.415" y1="79.6949" x2="735.9637" y2="257.3145">
	<stop  offset="0.3571" style="stop-color:#0075F9"/>
	<stop  offset="0.6542" style="stop-color:#0069E5"/>
	<stop  offset="0.9874" style="stop-color:#005ED3"/>
</linearGradient>
<path id="U" class="st1" d="M748.9,200.1c0,20,0.6,36.2,1.2,49H709l-2.2-21.5h-0.9c-5.9,9.4-20.3,25-47.8,25
	c-31.2,0-53.7-19.3-53.7-66.5V96.5h47.4v82.1c0,22.2,7.2,35.6,24,35.6c14.4-0.4,25.9-12.4,25.6-26.8V96.5h47.5L748.9,200.1z"/>
<linearGradient id="A_2_" gradientUnits="userSpaceOnUse" x1="800.7215" y1="99.4395" x2="894.4919" y2="261.8546">
	<stop  offset="0.3571" style="stop-color:#0075F9"/>
	<stop  offset="0.6542" style="stop-color:#0069E5"/>
	<stop  offset="0.9874" style="stop-color:#005ED3"/>
</linearGradient>
<path id="A_1_" class="st2" d="M914.1,212.3c0,14.4,0.6,28.4,2.5,36.8h-42.8l-2.8-15.3H870c-10,12.2-25.6,18.8-43.7,18.8
	c-30.9,0-49.3-22.5-49.3-46.8c0-39.7,35.6-58.4,89.6-58.4v-1.9c0-8.1-4.4-19.7-27.8-19.7c-15.6,0-32.2,5.3-42.1,11.2l-8.7-30.3
	c10.6-5.9,31.5-13.7,59.3-13.7c50.9,0,66.8,30,66.8,65.9L914.1,212.3L914.1,212.3z M868.2,177.1c-25,0-44.3,5.9-44.3,24
	c0,12.2,8.1,18.1,18.7,18.1c11.5,0,21.5-7.8,24.7-17.5c0.6-2.7,1-5.4,0.9-8.1V177.1z"/>
<linearGradient id="N_1_" gradientUnits="userSpaceOnUse" x1="964.6594" y1="88.3359" x2="1067.3131" y2="266.1372">
	<stop  offset="0.3571" style="stop-color:#0075F9"/>
	<stop  offset="0.6542" style="stop-color:#0069E5"/>
	<stop  offset="0.9874" style="stop-color:#005ED3"/>
</linearGradient>
<path id="N" class="st3" d="M951.8,145.2c0-19-0.6-35-1.2-48.7h41.2l2.2,21.2h0.9c6.2-10,21.5-24.7,47.1-24.7
	c31.2,0,54.6,20.9,54.6,65.9v90.3h-47.5v-84.6c0-19.7-6.9-33.1-24-33.1c-13.1,0-20.9,9.1-24.3,17.8c-1.2,3.1-1.6,7.5-1.6,11.9v88
	h-47.5V145.2z"/>
<linearGradient id="T_1_" gradientUnits="userSpaceOnUse" x1="1130.8011" y1="72.7399" x2="1228.8409" y2="242.55">
	<stop  offset="0.3571" style="stop-color:#0075F9"/>
	<stop  offset="0.6542" style="stop-color:#0069E5"/>
	<stop  offset="0.9874" style="stop-color:#005ED3"/>
</linearGradient>
<path id="T" class="st4" d="M1186,54.9v41.5h34v35h-34v55.3c0,18.4,4.7,26.8,18.7,26.8c4.7,0.2,9.4-0.3,14-1.2l0.3,35.9
	c-5.9,2.2-17.5,4.1-30.6,4.1c-15.3,0-28.1-5.3-35.9-13.1c-8.7-9.1-13.1-23.7-13.1-45.3v-62.4h-20.3v-35h20.3V67.7L1186,54.9z"/>
<linearGradient id="A_3_" gradientUnits="userSpaceOnUse" x1="1261.2456" y1="99.4371" x2="1355.0073" y2="261.8372">
	<stop  offset="0.3571" style="stop-color:#0075F9"/>
	<stop  offset="0.6542" style="stop-color:#0069E5"/>
	<stop  offset="0.9874" style="stop-color:#005ED3"/>
</linearGradient>
<path id="A" class="st5" d="M1374.5,212.3c0,14.4,0.6,28.4,2.5,36.8h-42.8l-2.8-15.3h-0.9c-10,12.2-25.6,18.8-43.7,18.8
	c-30.9,0-49.3-22.5-49.3-46.8c0-39.7,35.6-58.4,89.6-58.4v-1.9c0-8.1-4.4-19.7-27.8-19.7c-15.6,0-32.2,5.3-42.1,11.2l-8.7-30.3
	c10.6-5.9,31.5-13.7,59.3-13.7c50.9,0,66.8,30,66.8,65.9L1374.5,212.3L1374.5,212.3z M1328.6,177.1c-25,0-44.3,5.9-44.3,24
	c0,12.2,8.1,18.1,18.7,18.1c11.5,0,21.5-7.8,24.7-17.5c0.6-2.7,1-5.4,0.9-8.1V177.1z"/>
<linearGradient id="E_1_" gradientUnits="userSpaceOnUse" x1="1417.2031" y1="36.969" x2="1541.8181" y2="252.8087">
	<stop  offset="0.3571" style="stop-color:#0075F9"/>
	<stop  offset="0.6542" style="stop-color:#0069E5"/>
	<stop  offset="0.9874" style="stop-color:#005ED3"/>
</linearGradient>
<path id="E" class="st6" d="M1539.1,160.2h-77.4v49.9h86.5v39.1h-133.9V38.7h129.6v39h-82.1v43.7h77.4L1539.1,160.2z"/>
<linearGradient id="X_1_" gradientUnits="userSpaceOnUse" x1="1587.9246" y1="81.6689" x2="1693.6642" y2="264.8152">
	<stop  offset="0.3571" style="stop-color:#0075F9"/>
	<stop  offset="0.6542" style="stop-color:#0069E5"/>
	<stop  offset="0.9874" style="stop-color:#005ED3"/>
</linearGradient>
<path id="X" class="st7" d="M1615.2,96.5l15,25.7c4.4,7.8,8.4,15.3,12.5,22.8h0.6c4.1-8.4,7.8-15.9,11.9-23.7l13.4-24.7h51.5
	l-50.3,72.7l50.8,79.9h-53.7l-15.3-27.5c-4.5-7.5-8.4-15.4-11.9-23.4h-0.9c-3.7,8.4-7.8,15.9-11.5,23.4l-14.3,27.5H1561l51.8-78
	l-50.6-74.6L1615.2,96.5z"/>
<linearGradient id="bg_1_" gradientUnits="userSpaceOnUse" x1="88.9855" y1="4.0029" x2="269.5012" y2="316.6653">
	<stop  offset="7.042253e-03" style="stop-color:#FF6422"/>
	<stop  offset="1" style="stop-color:#FF3722"/>
</linearGradient>
<path id="bg" class="st8" d="M262.6,310.3H95.9c-36.8,0-66.7-29.8-66.7-66.7V77c0-36.8,29.8-66.7,66.7-66.7h166.7
	c36.8,0,66.7,29.8,66.7,66.7v166.7C329.2,280.5,299.4,310.3,262.6,310.3z"/>
<path id="u" class="st9" d="M268,247.1c-0.3,0.3-5,5.2-11.8,4.8c-3.1-0.1-6-1.2-8.5-2.9c-0.3-0.3-0.7-0.5-0.9-0.7
	c-1.6-1.4-5.2-4.8-9.2-9l-1.9-1.9l0,0c-3.8-3.8-7.8-8-10.9-11.1c-5.4-6-5.3-15.1,0.2-20.9c0.3-0.3,5-5.2,11.8-4.8
	c3.4,0.1,6.7,1.4,9.4,3.7l22.5,22.5c1.9,2.5,3,5.5,3.1,8.7C272.2,239.6,270.8,243.8,268,247.1z"/>
<path id="Q" class="st9" d="M206.4,69.3c-0.3-0.2-0.7-0.2-1-0.3c-0.5-0.2-1.2-0.3-1.7-0.5c-0.3,0-0.7-0.2-1-0.2
	c-0.4-0.1-0.8-0.3-1.2-0.3c-0.4-0.2-0.8-0.2-1.2-0.2c-0.5-0.2-1.2-0.2-1.7-0.3c-0.9-0.2-1.9-0.3-2.8-0.5c-0.6-0.2-1.3-0.3-1.9-0.3
	c-0.5,0-0.9-0.2-1.4-0.2c-4.1-0.5-8.2-0.8-12.3-0.9c-1.4,0-2.9,0-4.3,0.2c-1.4,0-2.8,0.1-4.2,0.3c-0.4,0-0.8,0-1.2,0.2
	c-0.4,0-0.8,0-1.2,0.2c-0.5,0-1,0.2-1.7,0.2c-0.3,0-0.7,0.2-1,0.2l0,0c-0.5,0-1,0.2-1.7,0.2l0,0c-0.7,0.2-1.4,0.2-2.1,0.3
	c-51.7,9.5-85.8,59.2-76.3,110.8c8.3,45.1,47.7,77.9,93.6,77.9h1.4c16.9-0.3,33.3-5,47.8-13.6l0,0c1.9-1.2,3.5-2.2,4.3-2.9
	c-3.5-3.5-6.9-7.1-10.6-10.6c-2.6-2.6-4.2-5.9-4.7-9.5c-0.5-2.9-0.2-5.9,0.9-8.7c-5.9,4.7-20.3,14-39.1,13.7
	c-9.8-0.3-19.4-2.9-28.1-7.6c-4.4-2.3-8.6-5.1-12.5-8.3l0,0c-13.5-11.1-23-27.5-23-47.8c0-35,28.5-63.4,63.5-63.4c0,0,0,0,0,0
	c37,0,63.2,32.4,63.5,63.5c0.2,16.4-6.9,29.6-13.5,38.4c2.7-1.2,5.7-1.6,8.7-1.2c2.6,0.4,5.2,1.4,7.4,2.8c1.2,0.7,2.3,1.5,3.3,2.4
	c0,0,3.8,4,9.9,10c5.2-7.8,9.1-16.3,11.8-25.3c0,0,4.2-13.5,4.2-27.2C275.2,118.3,247.2,81,206.4,69.3z"/>
</svg>
