<?xml version="1.0" encoding="utf-8"?>
<!-- Generator: Adobe Illustrator 23.0.0, SVG Export Plug-In . SVG Version: 6.00 Build 0)  -->
<svg version="1.1" id="Layer_1" xmlns="http://www.w3.org/2000/svg" xmlns:xlink="http://www.w3.org/1999/xlink" x="0px" y="0px"
	 width="466px" height="466px" viewBox="0 0 466 466" style="enable-background:new 0 0 466 466;" xml:space="preserve">
<style type="text/css">
	.st0{fill:url(#SVGID_1_);}
	.st1{fill:url(#SVGID_2_);}
	.st2{fill:#FFFFFF;}
	.st3{fill:url(#SVGID_3_);}
</style>
<linearGradient id="SVGID_1_" gradientUnits="userSpaceOnUse" x1="55.9205" y1="233" x2="407.421" y2="233">
	<stop  offset="0" style="stop-color:#A7F3CE"/>
	<stop  offset="1" style="stop-color:#61DB99"/>
</linearGradient>
<path class="st0" d="M71.9,1.3h319.5c8.8,0,16,7.2,16,16v431.4c0,8.8-7.2,16-16,16H71.9c-8.8,0-16-7.2-16-16V17.3
	C55.9,8.5,63.1,1.3,71.9,1.3z"/>
<linearGradient id="SVGID_2_" gradientUnits="userSpaceOnUse" x1="127.8184" y1="65.2384" x2="335.5232" y2="65.2384">
	<stop  offset="0" style="stop-color:#FFDE6A"/>
	<stop  offset="1" style="stop-color:#FFC000"/>
</linearGradient>
<path class="st1" d="M127.8,49.3h207.7v32H127.8V49.3z"/>
<g>
	<path class="st2" d="M311.6,121.2H151.8c-4.4,0-8-3.6-8-8s3.6-8,8-8h159.8c4.4,0,8,3.6,8,8S316,121.2,311.6,121.2z"/>
	<path class="st2" d="M359.5,177.1H183.7c-4.4,0-8-3.6-8-8s3.6-8,8-8h175.8c4.4,0,8,3.6,8,8S363.9,177.1,359.5,177.1z"/>
	<path class="st2" d="M271.6,225H111.8c-4.4,0-8-3.6-8-8s3.6-8,8-8h159.8c4.4,0,8,3.6,8,8S276,225,271.6,225z"/>
	<path class="st2" d="M359.5,225h-55.9c-4.4,0-8-3.6-8-8s3.6-8,8-8h55.9c4.4,0,8,3.6,8,8S363.9,225,359.5,225z"/>
	<path class="st2" d="M191.7,265h-79.9c-4.4,0-8-3.6-8-8c0-4.4,3.6-8,8-8h79.9c4.4,0,8,3.6,8,8C199.7,261.4,196.1,265,191.7,265z"/>
	<path class="st2" d="M279.6,265h-55.9c-4.4,0-8-3.6-8-8c0-4.4,3.6-8,8-8h55.9c4.4,0,8,3.6,8,8C287.6,261.4,284,265,279.6,265z"/>
</g>
<linearGradient id="SVGID_3_" gradientUnits="userSpaceOnUse" x1="241.8751" y1="372.8013" x2="361.7048" y2="372.8013">
	<stop  offset="0" style="stop-color:#FFDE6A"/>
	<stop  offset="1" style="stop-color:#FFC000"/>
</linearGradient>
<path class="st3" d="M361.7,372.8c0,33.1-26.8,59.9-59.9,59.9s-59.9-26.8-59.9-59.9s26.8-59.9,59.9-59.9S361.7,339.7,361.7,372.8z"
	/>
<path class="st2" d="M299.7,395.5c-4.2,0-8.3-1.7-11.3-4.6l-16.9-16.9c-1.5-1.5-2.4-3.5-2.4-5.7s0.9-4.2,2.4-5.7
	c3.1-3.1,8.1-3.1,11.3,0l16.9,16.9l28.3-28.2c3.2-2.7,7.9-2.5,10.8,0.4c2.9,3,3.1,7.7,0.4,10.8l-28.2,28.3
	C308,393.8,304,395.5,299.7,395.5z"/>
</svg>
