<?xml version="1.0" encoding="utf-8"?>
<!-- Generator: Adobe Illustrator 23.0.0, SVG Export Plug-In . SVG Version: 6.00 Build 0)  -->
<svg version="1.1" id="Capa_1" xmlns="http://www.w3.org/2000/svg" xmlns:xlink="http://www.w3.org/1999/xlink" x="0px" y="0px"
	 width="512px" height="512px" viewBox="0 0 512 512" style="enable-background:new 0 0 512 512;" xml:space="preserve">
<style type="text/css">
	.st0{fill:url(#SVGID_1_);}
	.st1{fill:url(#SVGID_2_);}
	.st2{fill:url(#SVGID_3_);}
	.st3{fill:url(#SVGID_4_);}
	.st4{fill:url(#SVGID_5_);}
	.st5{fill:url(#SVGID_6_);}
	.st6{fill:url(#SVGID_7_);}
	.st7{fill:url(#SVGID_8_);}
	.st8{fill:url(#SVGID_9_);}
	.st9{fill:url(#SVGID_10_);}
	.st10{fill:url(#bg_1_);}
	.st11{fill:#FFFFFF;}
</style>
<linearGradient id="SVGID_1_" gradientUnits="userSpaceOnUse" x1="133.4367" y1="763.3757" x2="422.0371" y2="763.3757" gradientTransform="matrix(1.0039 0 0 1.0039 1.1399 -486.3919)">
	<stop  offset="0" style="stop-color:#61DB99"/>
	<stop  offset="1" style="stop-color:#009E74"/>
</linearGradient>
<path class="st0" d="M414,353.4H146c-6,0-10.9-4.9-10.9-10.9V217.4c0-6,4.9-10.9,10.9-10.9h268c6,0,10.9,4.9,10.9,10.9v125.2
	C424.8,348.6,420,353.4,414,353.4z"/>
<linearGradient id="SVGID_2_" gradientUnits="userSpaceOnUse" x1="290.782" y1="807.4912" x2="275.6421" y2="752.4612" gradientTransform="matrix(1.0039 0 0 1.0039 1.1399 -486.3919)">
	<stop  offset="0" style="stop-color:#009E74;stop-opacity:0"/>
	<stop  offset="1" style="stop-color:#009E74"/>
</linearGradient>
<path class="st1" d="M135.4,338l15.4,15.4H414c6,0,10.9-4.9,10.9-10.9V217.4c0-6-4.9-10.9-10.9-10.9H146c-6,0-10.9,4.9-10.9,10.9
	v120L135.4,338z"/>
<linearGradient id="SVGID_3_" gradientUnits="userSpaceOnUse" x1="117.206" y1="747.1435" x2="405.8064" y2="747.1435" gradientTransform="matrix(1.0039 0 0 1.0039 1.1399 -486.3919)">
	<stop  offset="0" style="stop-color:#61DB99"/>
	<stop  offset="1" style="stop-color:#009E74"/>
</linearGradient>
<path class="st2" d="M397.7,337.1h-268c-6,0-10.9-4.9-10.9-10.9V201.1c0-6,4.9-10.9,10.9-10.9h268c6,0,10.9,4.9,10.9,10.9v125.2
	C408.5,332.3,403.7,337.1,397.7,337.1z"/>
<linearGradient id="SVGID_4_" gradientUnits="userSpaceOnUse" x1="272.756" y1="797.9009" x2="262.776" y2="750.1008" gradientTransform="matrix(1.0039 0 0 1.0039 1.1399 -486.3919)">
	<stop  offset="0" style="stop-color:#009E74;stop-opacity:0"/>
	<stop  offset="1" style="stop-color:#009E74"/>
</linearGradient>
<path class="st3" d="M119.1,321.7l15.4,15.4h263.2c6,0,10.9-4.9,10.9-10.9V201.1c0-6-4.9-10.9-10.9-10.9h-268
	c-6,0-10.9,4.9-10.9,10.9v120L119.1,321.7z"/>
<linearGradient id="SVGID_5_" gradientUnits="userSpaceOnUse" x1="100.9733" y1="730.9113" x2="389.5737" y2="730.9113" gradientTransform="matrix(1.0039 0 0 1.0039 1.1399 -486.3919)">
	<stop  offset="0" style="stop-color:#61DB99"/>
	<stop  offset="1" style="stop-color:#009E74"/>
</linearGradient>
<path class="st4" d="M381.4,320.8h-268c-6,0-10.9-4.9-10.9-10.9V184.8c0-6,4.9-10.9,10.9-10.9h268c6,0,10.9,4.9,10.9,10.9V310
	C392.2,316,387.4,320.8,381.4,320.8z"/>
<linearGradient id="SVGID_6_" gradientUnits="userSpaceOnUse" x1="266.9905" y1="813.6618" x2="220.5806" y2="629.8918" gradientTransform="matrix(1.0039 0 0 1.0039 1.1399 -486.3919)">
	<stop  offset="0" style="stop-color:#009E74;stop-opacity:0"/>
	<stop  offset="1" style="stop-color:#009E74"/>
</linearGradient>
<path class="st5" d="M102.8,305.4l15.4,15.4h263.2c6,0,10.9-4.9,10.9-10.9V184.8c0-6-4.9-10.9-10.9-10.9h-268
	c-6,0-10.9,4.9-10.9,10.9v120L102.8,305.4z"/>
<linearGradient id="SVGID_7_" gradientUnits="userSpaceOnUse" x1="85.7028" y1="715.6409" x2="374.3033" y2="715.6409" gradientTransform="matrix(1.0039 0 0 1.0039 1.1399 -486.3919)">
	<stop  offset="0" style="stop-color:#A7F3CE"/>
	<stop  offset="1" style="stop-color:#61DB99"/>
</linearGradient>
<path class="st6" d="M366,305.5H98c-6,0-10.9-4.9-10.9-10.9V169.4c0-6,4.9-10.9,10.9-10.9h268c6,0,10.9,4.9,10.9,10.9v125.2
	C376.9,300.6,372,305.5,366,305.5z"/>
<linearGradient id="SVGID_8_" gradientUnits="userSpaceOnUse" x1="154.6209" y1="640.2572" x2="338.2608" y2="823.8972" gradientTransform="matrix(1.0039 0 0 1.0039 1.1399 -486.3919)">
	<stop  offset="0" style="stop-color:#61DB99"/>
	<stop  offset="1" style="stop-color:#009E74"/>
</linearGradient>
<path class="st7" d="M360.5,189.6c-7.9-0.4-14.3-6.8-14.7-14.7c-0.1-1.7,0.1-3.4,0.6-5l0,0H117.7l0,0c0.4,1.6,0.6,3.3,0.6,5
	c-0.4,7.9-6.8,14.3-14.7,14.7c-2.7,0.1-5.2-0.4-7.5-1.5l0,0v87.7l0,0c2.3-1.1,4.8-1.6,7.5-1.5c7.9,0.4,14.3,6.9,14.7,14.7
	c0.1,1.7-0.1,3.4-0.6,5l0,0h228.7l0,0c-0.4-1.6-0.6-3.3-0.6-5c0.4-7.9,6.8-14.3,14.7-14.7c2.7-0.1,5.2,0.4,7.5,1.5l0,0v-87.7l0,0
	C365.8,189.2,363.2,189.8,360.5,189.6z"/>
<radialGradient id="SVGID_9_" cx="261.7034" cy="589.7085" r="188.6424" gradientTransform="matrix(1.0039 0 0 1.0039 1.1399 -486.3919)" gradientUnits="userSpaceOnUse">
	<stop  offset="0" style="stop-color:#61DB99"/>
	<stop  offset="0.3451" style="stop-color:#009E74"/>
	<stop  offset="0.9507" style="stop-color:#11A87A"/>
</radialGradient>
<path class="st8" d="M497.2,116c-10.4-3.8-21.7,0.5-27.1,9.7c-17-28-39.4-52.6-66.4-72.4C360.5,21.6,309.1,4.8,255.3,4.8
	S150.1,21.6,106.9,53.4c-42.4,31.1-73.5,73.8-90,123.5c-3.9,11.8,2.5,24.5,14.3,28.4c11.8,3.9,24.5-2.5,28.4-14.3
	c13.5-40.8,39.1-75.8,73.9-101.4c35.5-26.1,77.7-39.8,121.9-39.8s86.3,13.8,121.9,39.8c20.7,15.2,38.2,33.8,51.8,55
	c-10.3-1.6-20.7,4.3-24.4,14.5c-4.3,11.7,1.7,24.6,13.4,28.8l46.8,17.1c0.1,0,0.2,0.1,0.3,0.1c0.4,0.1,0.8,0.3,1.2,0.4
	c0.2,0.1,0.4,0.1,0.6,0.2c0.4,0.1,0.8,0.2,1.2,0.3c0.2,0,0.4,0.1,0.6,0.1c0.4,0.1,0.9,0.1,1.3,0.2c0.2,0,0.4,0,0.5,0.1
	c0.6,0.1,1.2,0.1,1.9,0.1c0,0,0,0,0,0h0c0.6,0,1.2,0,1.7-0.1c0.1,0,0.3,0,0.4,0c0.4,0,0.9-0.1,1.3-0.2c0.2,0,0.3-0.1,0.5-0.1
	c0.4-0.1,0.8-0.2,1.2-0.2c0.2,0,0.4-0.1,0.6-0.2c0.4-0.1,0.8-0.2,1.1-0.3c0.1,0,0.1,0,0.2,0c0.1,0,0.2-0.1,0.3-0.1
	c0.5-0.2,1-0.4,1.5-0.6c0.2-0.1,0.4-0.2,0.6-0.3c0.5-0.2,0.9-0.5,1.4-0.7c0.1-0.1,0.3-0.1,0.4-0.2c0.5-0.3,1.1-0.7,1.6-1
	c0.2-0.1,0.4-0.3,0.6-0.4c0.3-0.3,0.7-0.5,1-0.8c0.2-0.2,0.4-0.3,0.5-0.5c0.4-0.3,0.7-0.7,1.1-1.1c0.1-0.1,0.2-0.2,0.3-0.3
	c0.5-0.5,0.9-1,1.3-1.6c0,0,0.1-0.1,0.1-0.1c0.4-0.5,0.7-1,1.1-1.5c0.1-0.1,0.2-0.3,0.3-0.4c0.3-0.4,0.5-0.9,0.7-1.3
	c0.1-0.2,0.2-0.4,0.3-0.6c0.2-0.4,0.4-0.8,0.6-1.3c0.1-0.2,0.2-0.4,0.2-0.6c0-0.1,0.1-0.1,0.1-0.2l17.1-46.8
	C514.9,133.2,508.9,120.3,497.2,116z"/>
<radialGradient id="SVGID_10_" cx="1812.1356" cy="-7739.0229" r="253.3699" gradientTransform="matrix(-1.0039 0 0 -1.0039 2078.5056 -7511.5967)" gradientUnits="userSpaceOnUse">
	<stop  offset="0" style="stop-color:#BE3F45"/>
	<stop  offset="0.317" style="stop-color:#C14046"/>
	<stop  offset="0.538" style="stop-color:#CA4148"/>
	<stop  offset="0.729" style="stop-color:#D9444B"/>
	<stop  offset="0.902" style="stop-color:#EF4950"/>
	<stop  offset="1" style="stop-color:#FF4C54"/>
</radialGradient>
<path class="st9" d="M14.8,396c10.4,3.8,21.7-0.5,27.1-9.7c17,28,39.4,52.6,66.4,72.4c43.3,31.8,94.6,48.5,148.4,48.5
	s105.2-16.8,148.4-48.5c42.4-31.1,73.5-73.8,90-123.5c3.9-11.8-2.5-24.5-14.3-28.4c-11.8-3.9-24.5,2.5-28.4,14.3
	c-13.5,40.8-39.1,75.8-73.9,101.4c-35.5,26.1-77.7,39.8-121.9,39.8s-86.3-13.8-121.9-39.8c-20.7-15.2-38.2-33.8-51.8-55
	c10.3,1.6,20.7-4.3,24.4-14.5c4.3-11.7-1.7-24.6-13.4-28.8L47.3,307c-0.1,0-0.2-0.1-0.3-0.1c-0.4-0.1-0.8-0.3-1.2-0.4
	c-0.2-0.1-0.4-0.1-0.6-0.2c-0.4-0.1-0.8-0.2-1.2-0.3c-0.2,0-0.4-0.1-0.6-0.1c-0.4-0.1-0.9-0.1-1.3-0.2c-0.2,0-0.4,0-0.5-0.1
	c-0.6-0.1-1.2-0.1-1.8-0.1c0,0,0,0,0,0h0c-0.6,0-1.2,0-1.7,0.1c-0.1,0-0.3,0-0.4,0c-0.4,0-0.9,0.1-1.3,0.2c-0.2,0-0.3,0.1-0.5,0.1
	c-0.4,0.1-0.8,0.2-1.2,0.2c-0.2,0-0.4,0.1-0.6,0.2c-0.4,0.1-0.8,0.2-1.1,0.3c-0.1,0-0.1,0-0.2,0c-0.1,0-0.2,0.1-0.3,0.1
	c-0.5,0.2-1,0.4-1.5,0.6c-0.2,0.1-0.4,0.2-0.6,0.3c-0.5,0.2-0.9,0.5-1.4,0.7c-0.1,0.1-0.3,0.1-0.4,0.2c-0.5,0.3-1.1,0.7-1.6,1
	c-0.2,0.1-0.4,0.3-0.6,0.4c-0.3,0.3-0.7,0.5-1,0.8c-0.2,0.2-0.4,0.3-0.5,0.5c-0.4,0.3-0.7,0.7-1.1,1.1c-0.1,0.1-0.2,0.2-0.3,0.3
	c-0.5,0.5-0.9,1-1.3,1.6c0,0-0.1,0.1-0.1,0.1c-0.4,0.5-0.7,1-1.1,1.5c-0.1,0.1-0.2,0.3-0.3,0.4c-0.3,0.4-0.5,0.9-0.7,1.3
	c-0.1,0.2-0.2,0.4-0.3,0.6c-0.2,0.4-0.4,0.8-0.6,1.3c-0.1,0.2-0.2,0.4-0.2,0.6c0,0.1-0.1,0.1-0.1,0.2L1.4,367.1
	C-2.9,378.8,3.1,391.7,14.8,396z"/>
<linearGradient id="bg_1_" gradientUnits="userSpaceOnUse" x1="207.9765" y1="323.4918" x2="256.101" y2="240.1376" gradientTransform="matrix(1 0 0 -1 0 514)">
	<stop  offset="0" style="stop-color:#61DB99"/>
	<stop  offset="1" style="stop-color:#009E74"/>
</linearGradient>
<path id="bg" class="st10" d="M254.3,272.2h-44.4c-9.8,0-17.8-7.9-17.8-17.8V210c0-9.8,7.9-17.8,17.8-17.8h44.4
	c9.8,0,17.8,7.9,17.8,17.8v44.4C272,264.2,264.1,272.2,254.3,272.2z"/>
<path id="u" class="st11" d="M255.7,255.3c-0.1,0.1-1.3,1.4-3.1,1.3c-0.8,0-1.6-0.3-2.3-0.8c-0.1-0.1-0.2-0.1-0.2-0.2
	c-0.4-0.4-1.4-1.3-2.5-2.4l-0.5-0.5l0,0c-1-1-2.1-2.1-2.9-3c-1.4-1.6-1.4-4,0.1-5.6c0.1-0.1,1.3-1.4,3.1-1.3c0.9,0,1.8,0.4,2.5,1
	l6,6c0.5,0.7,0.8,1.5,0.8,2.3C256.8,253.3,256.4,254.4,255.7,255.3z"/>
<path id="Q" class="st11" d="M239.3,207.9c-0.1-0.1-0.2-0.1-0.3-0.1c-0.1-0.1-0.3-0.1-0.5-0.1c-0.1,0-0.2-0.1-0.3-0.1
	c-0.1,0-0.2-0.1-0.3-0.1c-0.1-0.1-0.2-0.1-0.3-0.1c-0.1-0.1-0.3-0.1-0.5-0.1c-0.2-0.1-0.5-0.1-0.7-0.1c-0.2-0.1-0.3-0.1-0.5-0.1
	c-0.1,0-0.2-0.1-0.4-0.1c-1.1-0.1-2.2-0.2-3.3-0.2c-0.4,0-0.8,0-1.1,0.1c-0.4,0-0.7,0-1.1,0.1c-0.1,0-0.2,0-0.3,0.1
	c-0.1,0-0.2,0-0.3,0.1c-0.1,0-0.3,0.1-0.5,0.1c-0.1,0-0.2,0.1-0.3,0.1l0,0c-0.1,0-0.3,0.1-0.5,0.1l0,0c-0.2,0.1-0.4,0.1-0.6,0.1
	c-13.8,2.5-22.9,15.8-20.3,29.5c2.2,12,12.7,20.8,25,20.8h0.4c4.5-0.1,8.9-1.3,12.7-3.6l0,0c0.5-0.3,0.9-0.6,1.1-0.8
	c-0.9-0.9-1.8-1.9-2.8-2.8c-0.7-0.7-1.1-1.6-1.3-2.5c-0.1-0.8-0.1-1.6,0.2-2.3c-1.6,1.3-5.4,3.7-10.4,3.7c-2.6-0.1-5.2-0.8-7.5-2
	c-1.2-0.6-2.3-1.4-3.3-2.2l0,0c-3.6-3-6.1-7.3-6.1-12.7c0-9.3,7.6-16.9,16.9-16.9l0,0c9.9,0,16.8,8.6,16.9,16.9
	c0.1,4.4-1.8,7.9-3.6,10.2c0.7-0.3,1.5-0.4,2.3-0.3c0.7,0.1,1.4,0.4,2,0.7c0.3,0.2,0.6,0.4,0.9,0.6c0,0,1,1.1,2.6,2.7
	c1.4-2.1,2.4-4.3,3.1-6.7c0,0,1.1-3.6,1.1-7.3C257.6,221,250.2,211,239.3,207.9z"/>
<g>
	<path class="st11" d="M303.8,282.7c-2.3-0.7-4.2-1.4-6.4-2.3c-0.4-0.1-0.7-0.2-1.1-0.2c-3.7-0.2-7.1-2.9-7.1-8.2
		c0-4.9,3.1-8.5,7.9-8.5c4.9,0,7.6,3.7,7.6,8.2c0,3.7-1.7,6.3-3.8,7.2v0.1c1.2,0.4,2.6,0.7,3.9,0.9L303.8,282.7z M297,277.3
		c2.5,0,3.9-2.3,3.9-5.5c0-3-1.4-5.4-3.9-5.4s-3.9,2.4-3.9,5.5C293,275,294.5,277.3,297,277.3L297,277.3z"/>
	<path class="st11" d="M307.1,264c1.1-0.2,2.7-0.3,4.9-0.3c2.3,0,3.9,0.4,4.9,1.3c1.1,0.8,1.7,2.1,1.7,3.7c0,1.6-0.5,3-1.5,3.8
		c-1.2,1.2-3.1,1.7-5.3,1.7c-0.5,0-0.9,0-1.2-0.1v5.8h-3.6V264z M310.7,271.3c0.3,0.1,0.7,0.1,1.2,0.1c1.9,0,3.1-1,3.1-2.6
		c0-1.5-1-2.4-2.9-2.4c-0.7,0-1.2,0-1.5,0.1V271.3z"/>
	<path class="st11" d="M323.4,275.8l-1.1,4.2h-3.8l4.9-16.2h4.8l5,16.2h-3.9l-1.2-4.2H323.4z M327.5,273.1l-1-3.4
		c-0.3-1-0.6-2.2-0.8-3.1h-0.1c-0.2,1-0.5,2.2-0.7,3.1l-1,3.4H327.5z"/>
	<path class="st11" d="M336.8,280v-6.6l-5.1-9.6h4.2l1.6,3.9c0.5,1.2,0.9,2,1.2,3.1h0c0.4-1,0.7-1.9,1.2-3.1l1.6-3.9h4.1l-5.3,9.4
		v6.7H336.8z"/>
</g>
</svg>
