<?xml version="1.0" encoding="utf-8"?>
<!-- Generator: Adobe Illustrator 23.0.0, SVG Export Plug-In . SVG Version: 6.00 Build 0)  -->
<svg version="1.1" id="Layer_1" xmlns="http://www.w3.org/2000/svg" xmlns:xlink="http://www.w3.org/1999/xlink" x="0px" y="0px"
	 width="512px" height="512px" viewBox="0 0 512 512" style="enable-background:new 0 0 512 512;" xml:space="preserve">
<style type="text/css">
	.st0{fill:url(#SVGID_1_);}
	.st1{fill:url(#SVGID_2_);}
	.st2{fill:#F2E9AF;}
	.st3{fill:#F9F7D9;}
</style>
<linearGradient id="SVGID_1_" gradientUnits="userSpaceOnUse" x1="211" y1="445.7031" x2="301" y2="445.7031">
	<stop  offset="0" style="stop-color:#202023"/>
	<stop  offset="1" style="stop-color:#454647"/>
</linearGradient>
<path class="st0" d="M301,415.7v30c0,24.9-20.1,45-45,45s-45-20.1-45-45v-30c0-8.4,6.6-15,15-15h60C294.4,400.7,301,407.3,301,415.7
	z"/>
<linearGradient id="SVGID_2_" gradientUnits="userSpaceOnUse" x1="91" y1="235.7031" x2="421" y2="235.7031">
	<stop  offset="0" style="stop-color:#FFDE6A"/>
	<stop  offset="1" style="stop-color:#FFC000"/>
</linearGradient>
<path class="st1" d="M256,40.7c-94.2,0-165,75.9-165,165c0,53.4,25.5,103.5,70.2,135c12.3,8.7,19.8,24,19.8,41.1v3.9
	c0,24.9,20.1,45,45,45h60c24.9,0,45-20.1,45-45v-4.8c0-16.2,8.7-31.8,23.7-43.2c42-31.5,66.3-79.5,66.3-132
	C421,115.1,348.1,41,256,40.7z"/>
<path class="st2" d="M497,220.7h-31c-8.3,0-15-6.7-15-15c0-8.3,6.7-15,15-15h31c8.3,0,15,6.7,15,15C512,214,505.3,220.7,497,220.7z"
	/>
<path class="st3" d="M46,220.7H15c-8.3,0-15-6.7-15-15c0-8.3,6.7-15,15-15h31c8.3,0,15,6.7,15,15C61,214,54.3,220.7,46,220.7z"/>
<path class="st2" d="M393.9,67.8c-5.9-5.9-5.9-15.4,0-21.2l21.2-21.2c5.9-5.9,15.4-5.9,21.2,0s5.9,15.4,0,21.2l-21.2,21.2
	C409.2,73.7,399.7,73.7,393.9,67.8z"/>
<path class="st3" d="M75.7,386c-5.9-5.9-5.9-15.4,0-21.2l21.2-21.2c5.9-5.9,15.4-5.9,21.2,0c5.9,5.9,5.9,15.4,0,21.2L96.9,386
	C91,391.9,81.6,391.9,75.7,386z"/>
<path class="st3" d="M96.9,67.8L75.7,46.6c-5.9-5.9-5.9-15.4,0-21.2s15.4-5.9,21.2,0l21.2,21.2c5.9,5.9,5.9,15.4,0,21.2
	S102.8,73.7,96.9,67.8z"/>
<path class="st2" d="M415.1,386l-21.2-21.2c-5.9-5.9-5.9-15.4,0-21.2c5.9-5.9,15.4-5.9,21.2,0l21.2,21.2c5.9,5.9,5.9,15.4,0,21.2
	S421,391.9,415.1,386z"/>
</svg>
