<?xml version="1.0" encoding="utf-8"?>
<!-- Generator: Adobe Illustrator 23.0.0, SVG Export Plug-In . SVG Version: 6.00 Build 0)  -->
<svg version="1.1" id="rocket" xmlns="http://www.w3.org/2000/svg" xmlns:xlink="http://www.w3.org/1999/xlink" x="0px" y="0px"
	 width="466.2px" height="466.2px" viewBox="0 0 466.2 466.2" style="enable-background:new 0 0 466.2 466.2;" xml:space="preserve"
	>
<style type="text/css">
	.st0{fill:url(#SVGID_1_);}
</style>
<linearGradient id="SVGID_1_" gradientUnits="userSpaceOnUse" x1="2.340106e-04" y1="233.1135" x2="466.227" y2="233.1135">
	<stop  offset="0" style="stop-color:#FFDE6A"/>
	<stop  offset="1" style="stop-color:#FFC000"/>
</linearGradient>
<path class="st0" d="M463.4,2.9c-1.9-1.8-4.2-2.7-6.9-2.7c-49.7,0-90.7,6.8-123.1,20.3C301.1,33.9,267,58.5,231.2,94.1
	c-15.2,15.4-32,34-50.2,55.7l-108.2,5.7c-3,0.4-5.5,1.9-7.4,4.6l-64,109.6c-2.3,3.8-1.8,7.5,1.4,11.1l18.3,18.3
	c1.7,1.7,3.9,2.6,6.6,2.6c1.1,0,2-0.1,2.6-0.3l78.8-24.3l80.2,80.2L165,436.1c-0.9,3.4-0.2,6.5,2.3,9.1l18.3,18.3
	c2.1,1.7,4.3,2.6,6.6,2.6c1.7,0,3.2-0.4,4.6-1.1l109.6-64c2.7-1.9,4.2-4.4,4.6-7.4l5.7-108.2c21.7-18.3,40.3-35,55.7-50.3
	c33.9-34.1,58-68.4,72.4-102.9C459,97.6,466.2,56.7,466.2,9.3C466.2,6.8,465.3,4.7,463.4,2.9z M394.3,110.9c-5.3,5.3-11.8,8-19.4,8
	s-14.1-2.7-19.4-8c-5.3-5.3-8-11.8-8-19.4c0-7.6,2.7-14.1,8-19.4c5.3-5.3,11.8-8,19.4-8s14.1,2.7,19.4,8s8,11.8,8,19.4
	C402.3,99.1,399.6,105.6,394.3,110.9z"/>
</svg>
