<?xml version="1.0" encoding="utf-8"?>
<!-- Generator: Adobe Illustrator 23.0.0, SVG Export Plug-In . SVG Version: 6.00 Build 0)  -->
<svg version="1.1" id="Capa_1" xmlns="http://www.w3.org/2000/svg" xmlns:xlink="http://www.w3.org/1999/xlink" x="0px" y="0px"
	 width="512px" height="512px" viewBox="0 0 512 512" style="enable-background:new 0 0 512 512;" xml:space="preserve">
<style type="text/css">
	.st0{fill:url(#SVGID_1_);}
	.st1{fill:#FFFFFF;}
	.st2{fill:url(#SVGID_2_);}
	.st3{fill:url(#SVGID_3_);}
</style>
<linearGradient id="SVGID_1_" gradientUnits="userSpaceOnUse" x1="306.5524" y1="782.3453" x2="553.7124" y2="1029.5054" gradientTransform="matrix(1.0039 0 0 1.0039 1.1399 -486.3914)">
	<stop  offset="0" style="stop-color:#A7F3CE"/>
	<stop  offset="1" style="stop-color:#61DB99"/>
</linearGradient>
<path class="st0" d="M340.4,164.1c93.5-1.4,169.8,72.2,171.6,165.6c0.3,13.7-1.1,27.1-3.9,39.9c-4.8,21.7-7.6,43.8-7.6,66v42.9
	c0,6.6-5.3,11.9-11.9,11.9h-42.9c-22.2,0-44.3,2.8-66,7.6c-12.8,2.8-26.2,4.2-39.9,3.9C246.2,500.3,172.6,424,174,330.5
	C175.4,239.2,249.1,165.5,340.4,164.1z"/>
<path id="u_1_" class="st1" d="M436.9,434.6c-0.3,0.3-5,5.2-11.8,4.8c-3.1-0.1-6-1.2-8.5-2.9c-0.3-0.3-0.7-0.5-0.9-0.7
	c-1.6-1.4-5.2-4.8-9.2-9l-1.9-1.9l0,0c-3.8-3.8-7.8-8-10.9-11.1c-5.4-6-5.3-15.1,0.2-20.9c0.3-0.3,5-5.2,11.8-4.8
	c3.4,0.1,6.7,1.4,9.4,3.7l22.5,22.5c1.9,2.5,3,5.5,3.1,8.7C441.1,427.1,439.7,431.3,436.9,434.6z"/>
<path id="Q_1_" class="st1" d="M375.3,256.8c-0.3-0.2-0.7-0.2-1-0.3c-0.5-0.2-1.2-0.3-1.7-0.5c-0.3,0-0.7-0.2-1-0.2
	c-0.4-0.1-0.8-0.3-1.2-0.3c-0.4-0.2-0.8-0.2-1.2-0.2c-0.5-0.2-1.2-0.2-1.7-0.3c-0.9-0.2-1.9-0.3-2.8-0.5c-0.6-0.2-1.3-0.3-1.9-0.3
	c-0.5,0-0.9-0.2-1.4-0.2c-4.1-0.5-8.2-0.8-12.3-0.9c-1.4,0-2.9,0-4.3,0.2c-1.4,0-2.8,0.1-4.2,0.3c-0.4,0-0.8,0-1.2,0.2
	c-0.4,0-0.8,0-1.2,0.2c-0.5,0-1,0.2-1.7,0.2c-0.3,0-0.7,0.2-1,0.2l0,0c-0.5,0-1,0.2-1.7,0.2l0,0c-0.7,0.2-1.4,0.2-2.1,0.3
	c-51.7,9.5-85.8,59.2-76.3,110.8c8.3,45.1,47.7,77.9,93.6,77.9h1.4c16.9-0.3,33.3-5,47.8-13.6l0,0c1.9-1.2,3.5-2.2,4.3-2.9
	c-3.5-3.5-6.9-7.1-10.6-10.6c-2.6-2.6-4.2-5.9-4.7-9.5c-0.5-2.9-0.2-5.9,0.9-8.7c-5.9,4.7-20.3,14-39.1,13.7
	c-9.8-0.3-19.4-2.9-28.1-7.6c-4.4-2.3-8.6-5.1-12.5-8.3l0,0c-13.5-11.1-23-27.5-23-47.8c0-35,28.5-63.4,63.5-63.4l0,0
	c37,0,63.2,32.4,63.5,63.5c0.2,16.4-6.9,29.6-13.5,38.4c2.7-1.2,5.7-1.6,8.7-1.2c2.6,0.4,5.2,1.4,7.4,2.8c1.2,0.7,2.3,1.5,3.3,2.4
	c0,0,3.8,4,9.9,10c5.2-7.8,9.1-16.3,11.8-25.3c0,0,4.2-13.5,4.2-27.2C444.1,305.8,416.1,268.5,375.3,256.8z"/>
<linearGradient id="SVGID_2_" gradientUnits="userSpaceOnUse" x1="387.4597" y1="863.2482" x2="282.4797" y2="758.2781" gradientTransform="matrix(1.0039 0 0 1.0039 1.1399 -486.3914)">
	<stop  offset="0" style="stop-color:#61DB99;stop-opacity:0"/>
	<stop  offset="1" style="stop-color:#009E74"/>
</linearGradient>
<path class="st2" d="M340.4,164.1c93.5-1.4,169.8,72.2,171.6,165.6c0.3,13.7-1.1,27.1-3.9,39.9c-4.8,21.7-7.6,43.8-7.6,66v42.9
	c0,6.6-5.3,11.9-11.9,11.9h-42.9c-22.2,0-44.3,2.8-66,7.6c-12.8,2.8-26.2,4.2-39.9,3.9C246.2,500.3,172.6,424,174,330.5
	C175.4,239.2,249.1,165.5,340.4,164.1z"/>
<linearGradient id="SVGID_3_" gradientUnits="userSpaceOnUse" x1="129.0309" y1="666.2769" x2="389.9809" y2="927.2269" gradientTransform="matrix(1.0039 0 0 1.0039 1.1399 -486.3914)">
	<stop  offset="0" style="stop-color:#62E1FB"/>
	<stop  offset="1" style="stop-color:#00A2F3"/>
</linearGradient>
<path class="st3" d="M209.1,9.9C95.2,8.2,2.2,97.8,0,211.7c-0.3,16.7,1.3,33,4.8,48.6c5.8,26.4,9.3,53.3,9.3,80.4V393
	c0,8,6.5,14.5,14.5,14.5H81c27.1,0,54,3.5,80.4,9.3c15.6,3.4,31.9,5.1,48.6,4.8c113.9-2.2,203.5-95.2,201.8-209.1
	C410.1,101.4,320.3,11.6,209.1,9.9z"/>
<path id="u" class="st1" d="M293.5,302.4c-0.3,0.3-5,5.2-11.8,4.8c-3.1-0.1-6-1.2-8.5-2.9c-0.3-0.3-0.7-0.5-0.9-0.7
	c-1.6-1.4-5.2-4.8-9.2-9l-1.9-1.9l0,0c-3.8-3.8-7.8-8-10.9-11.1c-5.4-6-5.3-15.1,0.2-20.9c0.3-0.3,5-5.2,11.8-4.8
	c3.4,0.1,6.7,1.4,9.4,3.7l22.5,22.5c1.9,2.5,3,5.5,3.1,8.7C297.7,294.9,296.3,299.1,293.5,302.4z"/>
<path id="Q" class="st1" d="M231.9,124.6c-0.3-0.2-0.7-0.2-1-0.3c-0.5-0.2-1.2-0.3-1.7-0.5c-0.3,0-0.7-0.2-1-0.2
	c-0.4-0.1-0.8-0.3-1.2-0.3c-0.4-0.2-0.8-0.2-1.2-0.2c-0.5-0.2-1.2-0.2-1.7-0.3c-0.9-0.2-1.9-0.3-2.8-0.5c-0.6-0.2-1.3-0.3-1.9-0.3
	c-0.5,0-0.9-0.2-1.4-0.2c-4.1-0.5-8.2-0.8-12.3-0.9c-1.4,0-2.9,0-4.3,0.2c-1.4,0-2.8,0.1-4.2,0.3c-0.4,0-0.8,0-1.2,0.2
	c-0.4,0-0.8,0-1.2,0.2c-0.5,0-1,0.2-1.7,0.2c-0.3,0-0.7,0.2-1,0.2l0,0c-0.5,0-1,0.2-1.7,0.2l0,0c-0.7,0.2-1.4,0.2-2.1,0.3
	c-51.7,9.5-85.8,59.2-76.3,110.8c8.3,45.1,47.7,77.9,93.6,77.9h1.4c16.9-0.3,33.3-5,47.8-13.6l0,0c1.9-1.2,3.5-2.2,4.3-2.9
	c-3.5-3.5-6.9-7.1-10.6-10.6c-2.6-2.6-4.2-5.9-4.7-9.5c-0.5-2.9-0.2-5.9,0.9-8.7c-5.9,4.7-20.3,14-39.1,13.7
	c-9.8-0.3-19.4-2.9-28.1-7.6c-4.4-2.3-8.6-5.1-12.5-8.3l0,0c-13.5-11.1-23-27.5-23-47.8c0-35,28.5-63.4,63.5-63.4l0,0
	c37,0,63.2,32.4,63.5,63.5c0.2,16.4-6.9,29.6-13.5,38.4c2.7-1.2,5.7-1.6,8.7-1.2c2.6,0.4,5.2,1.4,7.4,2.8c1.2,0.7,2.3,1.5,3.3,2.4
	c0,0,3.8,4,9.9,10c5.2-7.8,9.1-16.3,11.8-25.3c0,0,4.2-13.5,4.2-27.2C300.7,173.6,272.7,136.3,231.9,124.6z"/>
</svg>
