<?xml version="1.0" encoding="utf-8"?>
<!-- Generator: Adobe Illustrator 23.0.0, SVG Export Plug-In . SVG Version: 6.00 Build 0)  -->
<svg version="1.1" id="Capa_1" xmlns="http://www.w3.org/2000/svg" xmlns:xlink="http://www.w3.org/1999/xlink" x="0px" y="0px"
	 width="512px" height="512px" viewBox="0 0 512 512" style="enable-background:new 0 0 512 512;" xml:space="preserve">
<style type="text/css">
	.st0{fill:url(#SVGID_1_);}
	.st1{fill:url(#SVGID_2_);}
	.st2{fill:url(#SVGID_3_);}
	.st3{fill:url(#SVGID_4_);}
	.st4{fill:url(#SVGID_5_);}
	.st5{fill:url(#SVGID_6_);}
	.st6{fill:url(#SVGID_7_);}
	.st7{fill:url(#SVGID_8_);}
	.st8{fill:url(#SVGID_9_);}
</style>
<linearGradient id="SVGID_1_" gradientUnits="userSpaceOnUse" x1="41.2353" y1="521.2762" x2="172.3553" y2="727.4862" gradientTransform="matrix(1.0039 0 0 1.0039 1.1399 -486.3954)">
	<stop  offset="0" style="stop-color:#62E1FB"/>
	<stop  offset="1" style="stop-color:#00A2F3"/>
</linearGradient>
<circle class="st0" cx="118.5" cy="156.4" r="118.5"/>
<linearGradient id="SVGID_2_" gradientUnits="userSpaceOnUse" x1="116.9171" y1="577.7866" x2="116.9171" y2="657.2565" gradientTransform="matrix(1.0039 0 0 1.0039 1.1399 -486.3954)">
	<stop  offset="0" style="stop-color:#FFFFFF"/>
	<stop  offset="1" style="stop-color:#E2EDF2"/>
</linearGradient>
<circle class="st1" cx="118.5" cy="114.8" r="46"/>
<linearGradient id="SVGID_3_" gradientUnits="userSpaceOnUse" x1="116.9191" y1="673.3666" x2="116.9191" y2="741.2866" gradientTransform="matrix(1.0039 0 0 1.0039 1.1399 -486.3954)">
	<stop  offset="0" style="stop-color:#FFFFFF"/>
	<stop  offset="1" style="stop-color:#E2EDF2"/>
</linearGradient>
<path class="st2" d="M183,220.1c-16.4,16.6-39.2,26.9-64.5,26.9s-48-10.3-64.5-26.9c6.6-29.6,32.9-51.7,64.5-51.7
	c18.2,0,34.7,7.4,46.7,19.3C173.9,196.5,180.2,207.6,183,220.1z"/>
<linearGradient id="SVGID_4_" gradientUnits="userSpaceOnUse" x1="315.1365" y1="521.269" x2="446.2565" y2="727.479" gradientTransform="matrix(1.0039 0 0 1.0039 1.1399 -486.3954)">
	<stop  offset="0" style="stop-color:#A7F3CE"/>
	<stop  offset="1" style="stop-color:#61DB99"/>
</linearGradient>
<circle class="st3" cx="393.5" cy="156.4" r="118.5"/>
<linearGradient id="SVGID_5_" gradientUnits="userSpaceOnUse" x1="390.8228" y1="577.7866" x2="390.8228" y2="657.2565" gradientTransform="matrix(1.0039 0 0 1.0039 1.1399 -486.3954)">
	<stop  offset="0" style="stop-color:#FFFFFF"/>
	<stop  offset="1" style="stop-color:#E2EDF2"/>
</linearGradient>
<circle class="st4" cx="393.5" cy="114.8" r="46"/>
<linearGradient id="SVGID_6_" gradientUnits="userSpaceOnUse" x1="390.8208" y1="673.3666" x2="390.8208" y2="741.2866" gradientTransform="matrix(1.0039 0 0 1.0039 1.1399 -486.3954)">
	<stop  offset="0" style="stop-color:#FFFFFF"/>
	<stop  offset="1" style="stop-color:#E2EDF2"/>
</linearGradient>
<path class="st5" d="M457.9,220.1c-16.4,16.6-39.2,26.9-64.5,26.9s-48-10.3-64.5-26.9c6.6-29.6,32.9-51.7,64.5-51.7
	c18.2,0,34.7,7.4,46.7,19.3C448.9,196.5,455.2,207.6,457.9,220.1z"/>
<linearGradient id="SVGID_7_" gradientUnits="userSpaceOnUse" x1="272.0396" y1="823.2441" x2="397.2196" y2="948.424" gradientTransform="matrix(1.0039 0 0 1.0039 1.1399 -486.3954)">
	<stop  offset="0" style="stop-color:#FF5567"/>
	<stop  offset="1" style="stop-color:#FF2A48"/>
</linearGradient>
<circle class="st6" cx="256" cy="321.8" r="150.5"/>
<linearGradient id="SVGID_8_" gradientUnits="userSpaceOnUse" x1="253.87" y1="725.7091" x2="253.87" y2="826.5891" gradientTransform="matrix(1.0039 0 0 1.0039 1.1399 -486.3954)">
	<stop  offset="0" style="stop-color:#FFFFFF"/>
	<stop  offset="1" style="stop-color:#E2EDF2"/>
</linearGradient>
<circle class="st7" cx="256" cy="269.1" r="58.4"/>
<linearGradient id="SVGID_9_" gradientUnits="userSpaceOnUse" x1="253.87" y1="847.0491" x2="253.87" y2="933.2791" gradientTransform="matrix(1.0039 0 0 1.0039 1.1399 -486.3954)">
	<stop  offset="0" style="stop-color:#FFFFFF"/>
	<stop  offset="1" style="stop-color:#E2EDF2"/>
</linearGradient>
<path class="st8" d="M337.8,402.6C317,423.8,288,436.8,256,436.8s-61-13.1-81.8-34.2c8.3-37.5,41.8-65.6,81.8-65.6
	c23.2,0,44.1,9.4,59.3,24.6C326.3,372.7,334.3,386.8,337.8,402.6z"/>
</svg>
