<svg id="Layer_8" data-name="Layer 8" xmlns="http://www.w3.org/2000/svg" xmlns:xlink="http://www.w3.org/1999/xlink" viewBox="0 0 5122.89 1441.88"><defs><style>.cls-1,.cls-10,.cls-11,.cls-12,.cls-13,.cls-14,.cls-15,.cls-16,.cls-17,.cls-18,.cls-19,.cls-2,.cls-20,.cls-21,.cls-22,.cls-23,.cls-24,.cls-25,.cls-26,.cls-27,.cls-28,.cls-29,.cls-3,.cls-30,.cls-31,.cls-32,.cls-33,.cls-34,.cls-35,.cls-36,.cls-37,.cls-38,.cls-39,.cls-4,.cls-40,.cls-41,.cls-42,.cls-5,.cls-6,.cls-7,.cls-8,.cls-9{fill:none;stroke-miterlimit:10;stroke-width:1.35px;}.cls-1{stroke:url(#linear-gradient);}.cls-2{stroke:url(#linear-gradient-2);}.cls-3{stroke:url(#linear-gradient-3);}.cls-4{stroke:url(#linear-gradient-4);}.cls-5{stroke:url(#linear-gradient-5);}.cls-6{stroke:url(#linear-gradient-6);}.cls-7{stroke:url(#linear-gradient-7);}.cls-8{stroke:url(#linear-gradient-8);}.cls-9{stroke:url(#linear-gradient-9);}.cls-10{stroke:url(#linear-gradient-10);}.cls-11{stroke:url(#linear-gradient-11);}.cls-12{stroke:url(#linear-gradient-12);}.cls-13{stroke:url(#linear-gradient-13);}.cls-14{stroke:url(#linear-gradient-14);}.cls-15{stroke:url(#linear-gradient-15);}.cls-16{stroke:url(#linear-gradient-16);}.cls-17{stroke:url(#linear-gradient-17);}.cls-18{stroke:url(#linear-gradient-18);}.cls-19{stroke:url(#linear-gradient-19);}.cls-20{stroke:url(#linear-gradient-20);}.cls-21{stroke:url(#linear-gradient-21);}.cls-22{stroke:url(#linear-gradient-22);}.cls-23{stroke:url(#linear-gradient-23);}.cls-24{stroke:url(#linear-gradient-24);}.cls-25{stroke:url(#linear-gradient-25);}.cls-26{stroke:url(#linear-gradient-26);}.cls-27{stroke:url(#linear-gradient-27);}.cls-28{stroke:url(#linear-gradient-28);}.cls-29{stroke:url(#linear-gradient-29);}.cls-30{stroke:url(#linear-gradient-30);}.cls-31{stroke:url(#linear-gradient-31);}.cls-32{stroke:url(#linear-gradient-32);}.cls-33{stroke:url(#linear-gradient-33);}.cls-34{stroke:url(#linear-gradient-34);}.cls-35{stroke:url(#linear-gradient-35);}.cls-36{stroke:url(#linear-gradient-36);}.cls-37{stroke:url(#linear-gradient-37);}.cls-38{stroke:url(#linear-gradient-38);}.cls-39{stroke:url(#linear-gradient-39);}.cls-40{stroke:url(#linear-gradient-40);}.cls-41{stroke:url(#linear-gradient-41);}.cls-42{stroke:url(#linear-gradient-42);}</style><linearGradient id="linear-gradient" x1="1824.11" y1="-504.99" x2="3295.91" y2="2044.24" gradientUnits="userSpaceOnUse"><stop offset="0" stop-color="#49bd74" stop-opacity="0.1"/><stop offset="0.06" stop-color="#49bd74"/><stop offset="0.25" stop-color="#49bd74"/><stop offset="0.34" stop-color="#8bb3f7"/><stop offset="0.49" stop-color="#8bb3f7"/><stop offset="0.91" stop-color="#8bb3f7"/><stop offset="1" stop-color="#8bb3f7" stop-opacity="0.08"/></linearGradient><linearGradient id="linear-gradient-2" x1="1819.28" y1="-512.12" x2="3300.8" y2="2053.96" xlink:href="#linear-gradient"/><linearGradient id="linear-gradient-3" x1="1814.45" y1="-519.25" x2="3305.7" y2="2063.68" xlink:href="#linear-gradient"/><linearGradient id="linear-gradient-4" x1="1809.61" y1="-526.38" x2="3310.6" y2="2073.4" xlink:href="#linear-gradient"/><linearGradient id="linear-gradient-5" x1="1804.78" y1="-533.51" x2="3315.5" y2="2083.12" xlink:href="#linear-gradient"/><linearGradient id="linear-gradient-6" x1="1799.95" y1="-540.65" x2="3320.39" y2="2092.84" xlink:href="#linear-gradient"/><linearGradient id="linear-gradient-7" x1="1795.12" y1="-547.78" x2="3325.29" y2="2102.56" xlink:href="#linear-gradient"/><linearGradient id="linear-gradient-8" x1="1790.29" y1="-554.91" x2="3330.19" y2="2112.28" xlink:href="#linear-gradient"/><linearGradient id="linear-gradient-9" x1="1785.46" y1="-562.04" x2="3335.09" y2="2122" xlink:href="#linear-gradient"/><linearGradient id="linear-gradient-10" x1="1780.62" y1="-569.17" x2="3339.98" y2="2131.71" xlink:href="#linear-gradient"/><linearGradient id="linear-gradient-11" x1="1775.79" y1="-576.31" x2="3344.88" y2="2141.43" xlink:href="#linear-gradient"/><linearGradient id="linear-gradient-12" x1="1770.96" y1="-583.44" x2="3349.78" y2="2151.15" xlink:href="#linear-gradient"/><linearGradient id="linear-gradient-13" x1="1766.13" y1="-590.57" x2="3354.68" y2="2160.87" xlink:href="#linear-gradient"/><linearGradient id="linear-gradient-14" x1="1761.3" y1="-597.7" x2="3359.57" y2="2170.58" xlink:href="#linear-gradient"/><linearGradient id="linear-gradient-15" x1="1756.47" y1="-604.83" x2="3364.47" y2="2180.3" xlink:href="#linear-gradient"/><linearGradient id="linear-gradient-16" x1="1751.64" y1="-611.97" x2="3369.37" y2="2190.02" xlink:href="#linear-gradient"/><linearGradient id="linear-gradient-17" x1="1746.81" y1="-619.1" x2="3374.26" y2="2199.73" xlink:href="#linear-gradient"/><linearGradient id="linear-gradient-18" x1="1741.98" y1="-626.23" x2="3379.16" y2="2209.45" xlink:href="#linear-gradient"/><linearGradient id="linear-gradient-19" x1="1737.15" y1="-633.36" x2="3384.06" y2="2219.16" xlink:href="#linear-gradient"/><linearGradient id="linear-gradient-20" x1="1732.32" y1="-640.5" x2="3388.96" y2="2228.88" xlink:href="#linear-gradient"/><linearGradient id="linear-gradient-21" x1="1727.49" y1="-647.63" x2="3393.85" y2="2238.6" xlink:href="#linear-gradient"/><linearGradient id="linear-gradient-22" x1="1722.66" y1="-654.76" x2="3398.75" y2="2248.31" xlink:href="#linear-gradient"/><linearGradient id="linear-gradient-23" x1="1717.83" y1="-661.89" x2="3403.65" y2="2258.03" xlink:href="#linear-gradient"/><linearGradient id="linear-gradient-24" x1="1713" y1="-669.03" x2="3408.55" y2="2267.74" xlink:href="#linear-gradient"/><linearGradient id="linear-gradient-25" x1="1708.17" y1="-676.16" x2="3413.45" y2="2277.46" xlink:href="#linear-gradient"/><linearGradient id="linear-gradient-26" x1="1703.34" y1="-683.29" x2="3418.34" y2="2287.17" xlink:href="#linear-gradient"/><linearGradient id="linear-gradient-27" x1="1698.51" y1="-690.42" x2="3423.24" y2="2296.89" xlink:href="#linear-gradient"/><linearGradient id="linear-gradient-28" x1="1693.69" y1="-697.56" x2="3428.14" y2="2306.6" xlink:href="#linear-gradient"/><linearGradient id="linear-gradient-29" x1="1688.86" y1="-704.69" x2="3433.04" y2="2316.32" xlink:href="#linear-gradient"/><linearGradient id="linear-gradient-30" x1="1684.03" y1="-711.82" x2="3437.93" y2="2326.03" xlink:href="#linear-gradient"/><linearGradient id="linear-gradient-31" x1="1679.2" y1="-718.95" x2="3442.83" y2="2335.75" xlink:href="#linear-gradient"/><linearGradient id="linear-gradient-32" x1="1674.37" y1="-726.09" x2="3447.73" y2="2345.46" xlink:href="#linear-gradient"/><linearGradient id="linear-gradient-33" x1="1669.54" y1="-733.22" x2="3452.63" y2="2355.18" xlink:href="#linear-gradient"/><linearGradient id="linear-gradient-34" x1="1664.71" y1="-740.35" x2="3457.52" y2="2364.89" xlink:href="#linear-gradient"/><linearGradient id="linear-gradient-35" x1="1659.88" y1="-747.48" x2="3462.42" y2="2374.61" xlink:href="#linear-gradient"/><linearGradient id="linear-gradient-36" x1="1655.05" y1="-754.62" x2="3467.32" y2="2384.32" xlink:href="#linear-gradient"/><linearGradient id="linear-gradient-37" x1="1650.22" y1="-761.75" x2="3472.22" y2="2394.04" xlink:href="#linear-gradient"/><linearGradient id="linear-gradient-38" x1="1645.39" y1="-768.88" x2="3477.12" y2="2403.75" xlink:href="#linear-gradient"/><linearGradient id="linear-gradient-39" x1="1640.57" y1="-776.01" x2="3482.01" y2="2413.47" xlink:href="#linear-gradient"/><linearGradient id="linear-gradient-40" x1="1635.74" y1="-783.15" x2="3486.91" y2="2423.18" xlink:href="#linear-gradient"/><linearGradient id="linear-gradient-41" x1="1630.91" y1="-790.28" x2="3491.81" y2="2432.9" xlink:href="#linear-gradient"/><linearGradient id="linear-gradient-42" x1="1626.08" y1="-797.41" x2="3496.71" y2="2442.61" xlink:href="#linear-gradient"/></defs><title>Mail-new-blue-01</title><path class="cls-1" d="M0,548.79s317.71,34.68,620.19,24.55C929,563,1225,659,1092.21,748.11,629,1059,1811.78,1310.84,2409.36,1234.43c590.87-75.54,434.36,24.86,981.54,253.43C3942.5,1718.29,4803.59,934.21,5120,990.5" transform="translate(0.11 -89.17)"/><path class="cls-2" d="M0,538.87s317.39,32.65,620,22.68c307-10.16,601.51,84.06,474.56,173.17-54,37.73-84.69,74.83-96.14,110.89-82.9,263.28,889.84,443.54,1414.48,375.47,77.27-10,141.88-17.11,196.93-21.34,365.35-28.2,316.62,72.48,785.08,269.22,548.1,231.23,1392.59-519.6,1725.15-466" transform="translate(0.11 -89.17)"/><path class="cls-3" d="M0,529s317.07,30.63,619.83,20.81c305.15-10,598.42,82.74,477.1,171.57-51.56,37.75-81.1,74.86-92.28,111.42-82.39,269.44,887.4,444,1411.81,375,77.11-10.13,141.71-17.43,196.78-21.95,365.84-30.12,324.25,69.41,785.7,264.26,544.6,232,1372.49-485.55,1721.2-434.55" transform="translate(0.11 -89.17)"/><path class="cls-4" d="M0,519S316.75,547.64,619.65,538c303.32-9.79,595.24,81.28,479.64,170-49.15,37.71-77.47,74.9-88.43,111.94-81.53,275.71,885,444.5,1409.15,374.5,76.94-10.24,141.55-17.76,196.63-22.55,366.34-32,332.34,65.24,786.32,259.31C3944.62,1662.69,4755.35,979.65,5120.2,1028" transform="translate(0.11 -89.17)"/><path class="cls-5" d="M0,509.12s316.43,26.58,619.47,17.08C921,516.58,1211.54,606,1101.64,694.55c-46.74,37.66-73.84,74.94-84.57,112.47-80.65,282,882.52,445,1406.48,374,76.77-10.36,141.38-18.09,196.48-23.15,366.83-34,340.11,61.84,786.93,254.35,538.35,231.94,1332.3-417.44,1713.3-371.73" transform="translate(0.11 -89.17)"/><path class="cls-6" d="M0,499.2s316.11,24.56,619.29,15.21C918.94,505,1208.19,592.74,1104,681.16c-44.33,37.62-70.2,75-80.71,113-79.75,288.29,880.08,445.47,1403.81,373.54,76.6-10.47,141.21-18.41,196.34-23.75,367.33-35.89,347.87,58.45,787.55,249.39,535,232.36,1312.2-383.39,1709.35-340.32" transform="translate(0.11 -89.17)"/><path class="cls-7" d="M0,489.28s315.79,22.53,619.1,13.34c297.83-9.24,585.75,76.85,487.25,165.16-41.91,37.57-66.56,75-76.85,113.52-78.83,294.59,877.64,445.95,1401.15,373.05,76.43-10.59,141-18.74,196.19-24.35,367.83-37.81,355.64,55.07,788.17,244.43,531.72,232.78,1292.1-349.33,1705.4-308.91" transform="translate(0.11 -89.17)"/><path class="cls-8" d="M0,479.36s315.47,20.51,618.92,11.47c296-9.06,582.6,75.36,489.79,163.55-39.49,37.52-62.91,75.08-73,114-77.88,300.9,875.2,446.43,1398.48,372.57,76.26-10.7,140.88-19.06,196-24.95,368.32-39.73,363.39,51.72,788.79,239.47,528.4,233.22,1272-315.28,1701.45-277.5" transform="translate(0.11 -89.17)"/><path class="cls-9" d="M0,469.44s315.15,18.48,618.74,9.6c294.17-8.88,579.47,73.86,492.33,162-37.06,37.46-59.27,75.13-69.14,114.56-76.92,307.22,872.76,446.91,1395.82,372.09,76.1-10.82,140.71-19.39,195.89-25.55,368.82-41.65,371.14,48.38,789.4,234.52,525.07,233.67,1251.91-281.22,1697.5-246.09" transform="translate(0.11 -89.17)"/><path class="cls-10" d="M0,459.52S314.83,476,618.56,467.26c292.34-8.69,576.34,72.35,494.86,160.35-34.63,37.4-55.62,75.18-65.28,115.09-75.94,313.55,870.32,447.39,1393.15,371.61,75.93-10.93,140.55-19.72,195.74-26.15,369.31-43.57,378.88,45.06,790,229.56C3948.8,1551.84,4658.87,1070.54,5120.6,1103" transform="translate(0.11 -89.17)"/><path class="cls-11" d="M0,449.61S314.51,464,618.38,455.47c290.51-8.51,573.23,70.83,497.4,158.74-32.2,37.34-52,75.23-61.42,115.61C979.41,1049.71,1922.24,1177.7,2444.84,1101c75.76-11,140.38-20,195.59-26.75,369.81-45.49,386.62,41.76,790.64,224.6,518.41,234.62,1211.71-213.12,1689.6-183.27" transform="translate(0.11 -89.17)"/><path class="cls-12" d="M0,439.69s314.19,12.41,618.2,4c288.68-8.33,570.12,69.28,499.94,157.14-29.76,37.26-48.31,75.29-57.57,116.14C986.64,1043.18,1926,1165.32,2448.39,1087.6c75.59-11.16,140.21-20.37,195.45-27.35,370.31-47.41,394.35,38.47,791.25,219.64C3950.17,1515,4626.71,1100.83,5120.74,1128" transform="translate(0.11 -89.17)"/><path class="cls-13" d="M0,429.77s313.87,10.38,618,2.13c286.85-8.14,567,67.72,502.48,155.54-27.32,37.18-44.65,75.34-53.71,116.66-72.9,332.57,863,448.84,1385.15,370.16,75.42-11.27,140-20.7,195.3-28C3018,997,3049.31,1081.51,3439.11,1261c511.74,235.63,1171.52-145,1681.7-120.45" transform="translate(0.11 -89.17)"/><path class="cls-14" d="M0,419.85s313.55,8.36,617.83.26c285-8,563.92,66.14,505,153.94-24.88,37.09-41,75.39-49.85,117.19-71.85,338.91,860.56,449.32,1382.49,369.68,75.25-11.39,139.88-21,195.15-28.55,371.3-51.26,409.79,32,792.49,209.73,508.39,236.16,1151.42-111,1677.75-89" transform="translate(0.11 -89.17)"/><path class="cls-15" d="M0,409.93s313.23,6.34,617.65-1.61c283.19-7.78,560.83,64.53,507.56,152.33a363.61,363.61,0,0,0-46,117.71c-70.78,345.27,858.12,449.8,1379.82,369.19,75.09-11.5,139.71-21.35,195-29.15,371.79-53.18,417.5,28.73,793.1,204.77,505,236.7,1131.33-76.9,1673.8-57.63" transform="translate(0.11 -89.17)"/><path class="cls-16" d="M0,400s312.91,4.31,617.47-3.48c281.36-7.59,557.74,62.89,510.09,150.73-20,36.88-33.67,75.5-42.14,118.24-69.69,351.62,855.68,450.28,1377.15,368.71,74.92-11.62,139.55-21.67,194.85-29.75,372.29-55.1,425.2,25.52,793.72,199.81C3952.84,1441.54,4562.39,1161.42,5121,1178" transform="translate(0.11 -89.17)"/><path class="cls-17" d="M0,390.09s312.59,2.29,617.29-5.35c279.53-7.41,554.64,61.23,512.63,149.13-17.57,36.76-30,75.56-38.28,118.76-68.59,358,853.24,450.76,1374.49,368.23,74.75-11.73,139.38-22,194.71-30.35,372.79-57,432.9,22.33,794.34,194.85,498.32,237.86,1091.13-8.79,1665.9,5.19" transform="translate(0.11 -89.17)"/><path class="cls-18" d="M0,380.18s312.27.26,617.11-7.22c277.7-7.23,551.54,59.53,515.17,147.52-15.13,36.62-26.33,75.61-34.42,119.28-67.48,364.35,850.8,451.25,1371.82,367.74,74.58-11.85,139.21-22.33,194.56-31,373.28-58.94,440.59,19.16,795,189.9,494.95,238.47,1071,25.26,1661.95,36.6" transform="translate(0.11 -89.17)"/><path class="cls-19" d="M0,370.26s312-1.76,616.93-9.08c275.87-7,548.41,57.81,517.71,145.92-12.71,36.47-22.66,75.67-30.56,119.81-66.35,370.71,848.36,451.73,1369.16,367.26,74.41-12,139-22.65,194.41-31.56,373.78-60.86,448.27,16,795.57,184.94,491.57,239.1,1050.94,59.32,1658,68" transform="translate(0.11 -89.17)"/><path class="cls-20" d="M0,360.34s311.63-3.79,616.75-11c274-6.86,545.27,56.05,520.25,144.32C1126.7,530,1118,569.43,1110.29,614c-65.2,377.08,845.92,452.21,1366.49,366.78,74.24-12.07,138.88-23,194.26-32.16,374.27-62.78,455.94,12.88,796.19,180,488.18,239.75,1030.84,93.37,1654,99.42" transform="translate(0.11 -89.17)"/><path class="cls-21" d="M0,350.42s311.31-5.81,616.56-12.82c272.21-6.68,542.1,54.27,522.79,142.72-7.89,36.14-15.32,75.78-22.85,120.86-64,383.45,843.48,452.69,1363.82,366.3,74.08-12.19,138.71-23.31,194.11-32.76,374.77-64.7,463.6,9.77,796.81,175C3956,1350.16,4482,1237.16,5121.34,1240.56" transform="translate(0.11 -89.17)"/><path class="cls-22" d="M0,340.5s311-7.84,616.38-14.69c270.38-6.5,538.89,52.47,525.32,141.11-5.5,36-11.65,75.83-19,121.38-62.87,389.82,841,453.17,1361.16,365.81,73.91-12.3,138.55-23.63,194-33.36,375.26-66.63,471.25,6.68,797.42,170.07,481.37,241.13,990.65,161.48,1646.15,162.23" transform="translate(0.11 -89.17)"/><path class="cls-23" d="M0,330.58S310.67,320.72,616.2,314c268.55-6.31,535.64,50.66,527.86,139.51-3.13,35.77-8,75.89-15.13,121.91-61.68,396.19,838.6,453.65,1358.49,365.33,73.74-12.42,138.38-24,193.82-34,375.76-68.55,478.89,3.61,798,165.11,478,241.85,970.55,195.53,1642.19,193.64" transform="translate(0.11 -89.17)"/><path class="cls-24" d="M0,320.67s310.35-11.88,616-18.43c266.72-6.13,532.35,48.83,530.4,137.91-.78,35.58-4.29,75.94-11.28,122.43C1074.66,965.14,1971.3,1016.71,2491,927.42c73.57-12.53,138.21-24.29,193.67-34.56,376.26-70.47,486.53.56,798.66,160.15,474.52,242.61,950.46,229.59,1638.24,225.05" transform="translate(0.11 -89.17)"/><path class="cls-25" d="M0,310.75s310-13.91,615.84-20.3c264.89-5.95,529,47,532.94,136.3,1.56,35.39-.61,76-7.42,123-59.26,408.94,833.71,454.62,1353.16,364.36,73.4-12.65,138-24.61,193.52-35.16,376.75-72.39,494.15-2.46,799.28,155.19,471.07,243.4,930.36,263.64,1634.29,256.46" transform="translate(0.11 -89.17)"/><path class="cls-26" d="M0,300.83s309.71-15.93,615.66-22.16c263.06-5.76,525.63,45.2,535.48,134.7,3.87,35.21,3.07,76.06-3.56,123.48-58,415.31,831.27,455.1,1350.5,363.88C2571.3,888,2635.95,875.79,2691.44,865c377.25-74.31,501.76-5.47,799.89,150.23,467.61,244.21,910.26,297.7,1630.34,287.87" transform="translate(0.11 -89.17)"/><path class="cls-27" d="M0,290.91s309.39-18,615.48-24c261.23-5.58,522.21,43.41,538,133.1,6.17,35,6.75,76.11.3,124-56.8,421.69,828.83,455.58,1347.83,363.4,73.07-12.88,137.71-25.26,193.22-36.36,377.74-76.23,509.36-8.45,800.51,145.28,464.12,245.06,890.16,331.75,1626.39,319.28" transform="translate(0.11 -89.17)"/><path class="cls-28" d="M0,281s309.07-20,615.29-25.9c259.4-5.4,518.74,41.65,540.55,131.5,8.46,34.86,10.43,76.17,4.15,124.53C1104.45,939.18,1986.39,967.18,2505.16,874c72.9-13,137.55-25.59,193.07-37,378.24-78.15,517-11.41,801.13,140.32,460.62,245.95,870.07,365.8,1622.44,350.69" transform="translate(0.11 -89.17)"/><path class="cls-29" d="M0,271.07s308.75-22,615.11-27.77c257.57-5.21,515.25,39.91,543.09,129.89,10.74,34.71,14.11,76.23,8,125.05-54.29,434.44,824,456.54,1342.5,362.43,72.73-13.1,137.38-25.92,192.93-37.56,378.74-80.07,524.53-14.35,801.74,135.36,457.1,246.87,850,399.86,1618.49,382.1" transform="translate(0.11 -89.17)"/><path class="cls-30" d="M0,261.15s308.43-24,614.93-29.64c255.74-5,511.73,38.21,545.63,128.29,13,34.57,17.8,76.28,11.87,125.58-53,440.82,821.51,457,1339.83,362,72.56-13.22,137.21-26.24,192.78-38.16,379.23-82,532.1-17.27,802.36,130.4,453.56,247.83,829.87,433.91,1614.54,413.51" transform="translate(0.11 -89.17)"/><path class="cls-31" d="M0,251.24s308.11-26.06,614.75-31.51c253.91-4.85,508.2,36.55,548.17,126.69,15.27,34.44,21.48,76.34,15.73,126.1C1126.92,919.71,1997.72,930,2515.81,834c72.39-13.33,137-26.57,192.63-38.76,379.73-83.92,539.65-20.17,803,125.45,450,248.84,809.78,468,1610.59,444.92" transform="translate(0.11 -89.17)"/><path class="cls-32" d="M0,241.32s307.79-28.08,614.57-33.37c252.08-4.66,504.66,34.93,550.71,125.08,17.53,34.33,25.17,76.39,19.58,126.63-50.43,453.57,816.63,458,1334.5,361,72.23-13.45,136.88-26.9,192.48-39.37,380.22-85.84,547.19-23,803.59,120.49,446.4,249.88,789.68,502,1606.64,476.33" transform="translate(0.11 -89.17)"/><path class="cls-33" d="M0,231.4s307.47-30.11,614.39-35.24c250.25-4.48,501.12,33.33,553.24,123.48,19.79,34.23,28.86,76.45,23.44,127.15-49.13,459.94,814.19,458.47,1331.83,360.5,72.06-13.56,136.71-27.22,192.33-40C3096,679.57,3270,741.43,3519.45,882.86c442.78,251,769.58,536.07,1602.69,507.74" transform="translate(0.11 -89.17)"/><path class="cls-34" d="M0,221.48s307.15-32.13,614.2-37.11c248.42-4.3,497.57,31.77,555.78,121.88,22.06,34.14,32.54,76.51,27.3,127.68-47.81,466.32,811.75,459,1329.17,360,71.89-13.68,136.55-27.55,192.18-40.57,381.22-89.68,562.22-28.72,804.83,110.57,439.12,252.13,749.49,570.13,1598.74,539.15" transform="translate(0.11 -89.17)"/><path class="cls-35" d="M0,211.56s306.83-34.15,614-39c246.59-4.12,494,30.24,558.32,120.28,24.32,34.07,36.23,76.56,31.16,128.2C1157,893.75,2012.81,880.49,2530,780.59c71.72-13.79,136.38-27.87,192-41.17,381.71-91.6,569.72-31.53,805.45,105.62,435.43,253.32,729.39,604.18,1594.79,570.56" transform="translate(0.11 -89.17)"/><path class="cls-36" d="M0,201.64s306.51-36.18,613.84-40.85c244.76-3.93,490.51,28.73,560.86,118.67,26.59,34,39.92,76.62,35,128.72-45.15,479.06,806.87,459.92,1323.84,359.05,71.55-13.9,136.21-28.2,191.89-41.77,382.21-93.52,577.19-34.31,806.06,100.66,431.7,254.58,709.29,638.24,1590.84,602" transform="translate(0.11 -89.17)"/><path class="cls-37" d="M0,191.73S306.19,153.52,613.66,149c242.93-3.75,487,27.24,563.4,117.07,28.87,33.94,43.62,76.67,38.87,129.25-43.8,485.44,804.43,460.4,1321.17,358.57,71.38-14,136-28.53,191.74-42.37,382.7-95.44,584.65-37.07,806.68,95.7,427.93,255.9,689.2,672.29,1586.89,633.38" transform="translate(0.11 -89.17)"/><path class="cls-38" d="M0,181.81s305.87-40.23,613.48-44.59C854.58,133.65,1097,163,1179.41,252.69c31.15,33.89,47.4,76.74,42.73,129.77-41.54,491.89,802,460.88,1318.5,358.09,71.22-14.13,135.88-28.85,191.59-43,383.2-97.36,592.09-39.81,807.3,90.74,424.11,257.29,669.1,706.34,1582.94,664.79" transform="translate(0.11 -89.17)"/><path class="cls-39" d="M0,171.89s305.55-42.25,613.3-46.45c239.27-3.38,480,24.31,568.47,113.87,33.43,33.84,51.07,76.79,46.59,130.3C1188,867.83,2027.91,831,2544.19,727.2c71-14.25,135.72-29.18,191.44-43.57,383.69-99.29,599.52-42.53,807.91,85.78,420.24,258.74,649,740.4,1579,696.2" transform="translate(0.11 -89.17)"/><path class="cls-40" d="M0,162s305.23-44.28,613.12-48.32c237.44-3.2,476.53,22.86,571,112.26,35.72,33.8,54.74,76.84,50.44,130.82-39.25,504.59,797.11,461.84,1313.17,357.12,70.88-14.36,135.55-29.51,191.29-44.17,384.19-101.21,606.92-45.22,808.53,80.83,416.31,260.28,628.91,774.45,1575,727.61" transform="translate(0.11 -89.17)"/><path class="cls-41" d="M0,152.05s304.91-46.3,612.93-50.19c235.61-3,472.92,21.6,573.55,110.66,38,33.83,58.41,76.89,54.3,131.35-38.1,510.94,794.67,462.32,1310.51,356.64,70.71-14.48,135.38-29.83,191.15-44.77,384.69-103.13,614.3-47.9,809.15,75.87,412.31,261.89,608.81,808.51,1571.09,759" transform="translate(0.11 -89.17)"/><path class="cls-42" d="M0,142.13S1274.94-60.15,1247,331c-42,588.06,1035.33,437.2,1498.84,310.78,1221.12-333,947.64,937.49,2376.91,861.34" transform="translate(0.11 -89.17)"/></svg>